<svg width="229" height="44" viewBox="0 0 229 44" fill="none" xmlns="http://www.w3.org/2000/svg">
<path d="M51.7197 44H69.4816L25.4818 0H7.71973L51.7197 44Z" fill="#3F64AB"/>
<path d="M34.6074 2.2511e-06L77.0226 42.4151V0H65.5443V13.3913L52.1529 0L34.6074 2.2511e-06Z" fill="#3F64AB"/>
<path d="M0.28418 1.47314V44H11.7624V30.6086L25.1536 44H42.8111L0.28418 1.47314Z" fill="#3F64AB"/>
<path d="M99.6562 13.5513L93.2754 33H88.1353L96.8525 9.53906H100.124L99.6562 13.5513ZM104.958 33L98.5605 13.5513L98.0449 9.53906H101.348L110.114 33H104.958ZM104.667 24.2666V28.0532H92.2764V24.2666H104.667ZM116.64 19.3682V33H111.999V15.5654H116.366L116.64 19.3682ZM121.893 15.4526L121.812 19.7549C121.586 19.7227 121.312 19.6958 120.99 19.6743C120.679 19.6421 120.394 19.626 120.136 19.626C119.481 19.626 118.912 19.7119 118.428 19.8838C117.956 20.0449 117.558 20.2866 117.236 20.6089C116.924 20.9312 116.688 21.3232 116.527 21.7852C116.376 22.2471 116.291 22.7734 116.269 23.3643L115.334 23.0742C115.334 21.9463 115.447 20.9097 115.673 19.9644C115.898 19.0083 116.226 18.1758 116.656 17.4668C117.096 16.7578 117.633 16.21 118.267 15.8232C118.901 15.4365 119.626 15.2432 120.442 15.2432C120.7 15.2432 120.963 15.2646 121.232 15.3076C121.5 15.3398 121.721 15.3882 121.893 15.4526ZM133.43 15.5654V18.8525H123.278V15.5654H133.43ZM125.792 11.2632H130.433V27.7471C130.433 28.252 130.497 28.6387 130.626 28.9072C130.766 29.1758 130.97 29.3638 131.238 29.4712C131.507 29.5679 131.845 29.6162 132.253 29.6162C132.543 29.6162 132.801 29.6055 133.027 29.584C133.263 29.5518 133.462 29.5195 133.623 29.4873L133.639 32.9033C133.242 33.0322 132.812 33.1343 132.35 33.2095C131.888 33.2847 131.378 33.3223 130.819 33.3223C129.799 33.3223 128.907 33.1558 128.145 32.8228C127.393 32.479 126.812 31.9312 126.404 31.1792C125.996 30.4272 125.792 29.439 125.792 28.2144V11.2632ZM144.822 28.1016L150.349 9.53906H155.73L147.561 33H144.016L144.822 28.1016ZM139.73 9.53906L145.241 28.1016L146.079 33H142.501L134.38 9.53906H139.73ZM164.947 33.3223C163.594 33.3223 162.38 33.1074 161.306 32.6777C160.231 32.2373 159.318 31.6304 158.566 30.8569C157.825 30.0835 157.256 29.1865 156.858 28.166C156.461 27.1348 156.262 26.0391 156.262 24.8789V24.2344C156.262 22.9131 156.45 21.7046 156.826 20.6089C157.202 19.5132 157.739 18.5625 158.438 17.7568C159.146 16.9512 160.006 16.3335 161.016 15.9038C162.025 15.4634 163.164 15.2432 164.432 15.2432C165.667 15.2432 166.763 15.4473 167.719 15.8555C168.675 16.2637 169.475 16.8438 170.12 17.5957C170.775 18.3477 171.269 19.25 171.602 20.3027C171.935 21.3447 172.102 22.5049 172.102 23.7832V25.7168H158.244V22.623H167.542V22.2686C167.542 21.624 167.423 21.0493 167.187 20.5444C166.961 20.0288 166.618 19.6206 166.156 19.3198C165.694 19.019 165.103 18.8687 164.383 18.8687C163.771 18.8687 163.245 19.0029 162.804 19.2715C162.364 19.54 162.004 19.916 161.725 20.3994C161.456 20.8828 161.252 21.4521 161.112 22.1074C160.983 22.752 160.919 23.4609 160.919 24.2344V24.8789C160.919 25.5771 161.016 26.2217 161.209 26.8125C161.413 27.4033 161.698 27.9136 162.063 28.3433C162.439 28.7729 162.89 29.106 163.417 29.3423C163.954 29.5786 164.561 29.6968 165.237 29.6968C166.075 29.6968 166.854 29.5356 167.574 29.2134C168.304 28.8804 168.933 28.3809 169.459 27.7148L171.715 30.1641C171.35 30.6904 170.85 31.1953 170.216 31.6787C169.593 32.1621 168.841 32.5596 167.96 32.8711C167.08 33.1719 166.075 33.3223 164.947 33.3223ZM179.288 19.2876V33H174.647V15.5654H178.998L179.288 19.2876ZM178.611 23.6704H177.354C177.354 22.3813 177.521 21.2212 177.854 20.1899C178.187 19.1479 178.654 18.2617 179.256 17.5312C179.857 16.79 180.572 16.2261 181.399 15.8394C182.237 15.4419 183.171 15.2432 184.203 15.2432C185.019 15.2432 185.766 15.3613 186.442 15.5977C187.119 15.834 187.699 16.21 188.183 16.7256C188.677 17.2412 189.053 17.9233 189.311 18.772C189.579 19.6206 189.713 20.6572 189.713 21.8818V33H185.041V21.8657C185.041 21.0923 184.933 20.4907 184.718 20.061C184.503 19.6313 184.187 19.3306 183.768 19.1587C183.359 18.9761 182.854 18.8848 182.253 18.8848C181.63 18.8848 181.087 19.0083 180.625 19.2554C180.174 19.5024 179.798 19.8462 179.498 20.2866C179.208 20.7163 178.987 21.2212 178.837 21.8013C178.687 22.3813 178.611 23.0044 178.611 23.6704ZM203.555 28.8267V15.5654H208.195V33H203.829L203.555 28.8267ZM204.07 25.2495L205.44 25.2173C205.44 26.3774 205.306 27.457 205.037 28.4561C204.769 29.4443 204.366 30.3037 203.829 31.0342C203.292 31.7539 202.615 32.3179 201.798 32.7261C200.982 33.1235 200.021 33.3223 198.914 33.3223C198.065 33.3223 197.281 33.2041 196.562 32.9678C195.853 32.7207 195.24 32.3394 194.725 31.8237C194.22 31.2974 193.822 30.626 193.532 29.8096C193.253 28.9824 193.113 27.9888 193.113 26.8286V15.5654H197.754V26.8608C197.754 27.3765 197.813 27.8115 197.931 28.166C198.06 28.5205 198.237 28.8105 198.463 29.0361C198.688 29.2617 198.952 29.4229 199.252 29.5195C199.564 29.6162 199.908 29.6646 200.284 29.6646C201.24 29.6646 201.992 29.4712 202.54 29.0845C203.098 28.6978 203.49 28.1714 203.716 27.5054C203.952 26.8286 204.07 26.0767 204.07 25.2495ZM219.765 33.3223C218.411 33.3223 217.197 33.1074 216.123 32.6777C215.049 32.2373 214.136 31.6304 213.384 30.8569C212.643 30.0835 212.073 29.1865 211.676 28.166C211.278 27.1348 211.08 26.0391 211.08 24.8789V24.2344C211.08 22.9131 211.268 21.7046 211.644 20.6089C212.02 19.5132 212.557 18.5625 213.255 17.7568C213.964 16.9512 214.823 16.3335 215.833 15.9038C216.843 15.4634 217.981 15.2432 219.249 15.2432C220.484 15.2432 221.58 15.4473 222.536 15.8555C223.492 16.2637 224.292 16.8438 224.937 17.5957C225.592 18.3477 226.086 19.25 226.419 20.3027C226.752 21.3447 226.919 22.5049 226.919 23.7832V25.7168H213.062V22.623H222.359V22.2686C222.359 21.624 222.241 21.0493 222.004 20.5444C221.779 20.0288 221.435 19.6206 220.973 19.3198C220.511 19.019 219.92 18.8687 219.201 18.8687C218.588 18.8687 218.062 19.0029 217.622 19.2715C217.181 19.54 216.821 19.916 216.542 20.3994C216.273 20.8828 216.069 21.4521 215.93 22.1074C215.801 22.752 215.736 23.4609 215.736 24.2344V24.8789C215.736 25.5771 215.833 26.2217 216.026 26.8125C216.23 27.4033 216.515 27.9136 216.88 28.3433C217.256 28.7729 217.708 29.106 218.234 29.3423C218.771 29.5786 219.378 29.6968 220.055 29.6968C220.893 29.6968 221.671 29.5356 222.391 29.2134C223.122 28.8804 223.75 28.3809 224.276 27.7148L226.532 30.1641C226.167 30.6904 225.667 31.1953 225.034 31.6787C224.411 32.1621 223.659 32.5596 222.778 32.8711C221.897 33.1719 220.893 33.3223 219.765 33.3223Z" fill="#3F64AB"/>
</svg>
