<svg width="40" height="40" viewBox="0 0 40 40" fill="none" xmlns="http://www.w3.org/2000/svg">
<path d="M27.9999 15H21.2499V22.4L24.6999 18.95C24.9499 18.7 25.2666 18.5833 25.5833 18.5833C25.8999 18.5833 26.2166 18.7 26.4666 18.95C26.9499 19.4333 26.9499 20.2333 26.4666 20.7167L20.8833 26.3C20.3999 26.7833 19.5999 26.7833 19.1166 26.3L13.5333 20.7167C13.0499 20.2333 13.0499 19.4333 13.5333 18.95C14.0166 18.4667 14.8166 18.4667 15.2999 18.95L18.7499 22.4V15H11.9999C6.66659 15 3.33325 18.3333 3.33325 23.6667V27.9833C3.33325 33.3333 6.66659 36.6667 11.9999 36.6667H27.9833C33.3166 36.6667 36.6499 33.3333 36.6499 28V23.6667C36.6666 18.3333 33.3333 15 27.9999 15Z" fill="#3F64AB"/>
<path d="M21.25 4.58325C21.25 3.89992 20.6833 3.33325 20 3.33325C19.3167 3.33325 18.75 3.89992 18.75 4.58325V14.9999H21.25V4.58325Z" fill="#3F64AB"/>
</svg>
