<svg width="43" height="44" viewBox="0 0 43 44" fill="none" xmlns="http://www.w3.org/2000/svg">
<path d="M39.278 30.4266V8.96883C39.278 6.8355 37.5357 5.25328 35.4202 5.43105H35.3135C31.5802 5.75105 25.9091 7.65328 22.7446 9.64439L22.4424 9.83994C21.9269 10.1599 21.0735 10.1599 20.558 9.83994L20.1135 9.57328C16.9491 7.59994 11.2957 5.7155 7.56241 5.41328C5.44686 5.2355 3.72241 6.8355 3.72241 8.95105V30.4266C3.72241 32.1333 5.10908 33.7333 6.81575 33.9466L7.3313 34.0177C11.1891 34.5333 17.1446 36.4888 20.558 38.3555L20.6291 38.3911C21.1091 38.6577 21.8735 38.6577 22.3357 38.3911C25.7491 36.5066 31.7224 34.5333 35.598 34.0177L36.1846 33.9466C37.8913 33.7333 39.278 32.1333 39.278 30.4266Z" stroke="#3F64AB" stroke-width="2.66667" stroke-linecap="round" stroke-linejoin="round"/>
<path opacity="0.4" d="M21.5 10.4267V37.0934" stroke="#3F64AB" stroke-width="2.66667" stroke-linecap="round" stroke-linejoin="round"/>
<path opacity="0.4" d="M13.9446 15.76H9.94458" stroke="#3F64AB" stroke-width="2.66667" stroke-linecap="round" stroke-linejoin="round"/>
<path opacity="0.4" d="M15.2779 21.0933H9.94458" stroke="#3F64AB" stroke-width="2.66667" stroke-linecap="round" stroke-linejoin="round"/>
</svg>
