<svg width="151" height="44" viewBox="0 0 151 44" fill="none" xmlns="http://www.w3.org/2000/svg">
<path d="M13.8532 27.4749V38.6409C13.8532 39.069 13.6832 39.4795 13.3805 39.7821C13.0779 40.0848 12.6674 40.2548 12.2393 40.2548C11.8114 40.2548 11.4009 40.0848 11.0982 39.7821C10.7955 39.4795 10.6254 39.069 10.6254 38.6409V27.4903C11.0749 27.8185 11.6135 28.0017 12.1698 28.0154C12.7762 28.0327 13.3703 27.842 13.8532 27.4749ZM27.5984 24.2471C27.1888 24.2471 26.7959 24.4099 26.5064 24.6995C26.2168 24.989 26.054 25.3819 26.054 25.7915V27.7375C26.054 28.1656 26.224 28.5761 26.5267 28.8786C26.8293 29.1813 27.2398 29.3513 27.6679 29.3513C28.096 29.3513 28.5065 29.1813 28.8091 28.8786C29.1118 28.5761 29.2818 28.1656 29.2818 27.7375V25.8687C29.2938 25.6473 29.258 25.4258 29.1768 25.2195C29.0955 25.0131 28.9709 24.8266 28.8111 24.6727C28.6514 24.5189 28.4603 24.4012 28.2512 24.3277C28.042 24.2544 27.8193 24.2269 27.5984 24.2471ZM7.11964 31.7066C6.56392 31.6899 6.02594 31.507 5.57524 31.1815V42.3784C5.57524 42.8085 5.74608 43.221 6.0502 43.5251C6.35431 43.8292 6.76678 44 7.19686 44C7.62695 44 8.03941 43.8292 8.34352 43.5251C8.64764 43.221 8.81848 42.8085 8.81848 42.3784V31.2587C8.31416 31.5847 7.71911 31.7416 7.11964 31.7066ZM22.5637 20.8958C22.3544 20.8853 22.1453 20.9175 21.9488 20.9904C21.7525 21.0633 21.5731 21.1754 21.4213 21.3198C21.2696 21.4644 21.149 21.6381 21.0665 21.8307C20.9842 22.0233 20.9417 22.2307 20.942 22.4402V31.0425C20.942 31.4726 21.1128 31.8851 21.4169 32.1892C21.7212 32.4933 22.1335 32.6641 22.5637 32.6641C22.9938 32.6641 23.4063 32.4933 23.7104 32.1892C24.0145 31.8851 24.1853 31.4726 24.1853 31.0425V22.5483C24.1976 22.3254 24.1615 22.1025 24.0793 21.895C23.9972 21.6874 23.8711 21.5001 23.7096 21.3459C23.5481 21.1918 23.3552 21.0744 23.144 21.0022C22.9329 20.9297 22.7085 20.9039 22.4864 20.9266L22.5637 20.8958ZM17.4362 24.2008C16.8545 24.1968 16.2883 24.0134 15.8146 23.6757V34.9035C15.8146 35.3336 15.9854 35.7461 16.2895 36.0502C16.5938 36.3543 17.0061 36.5251 17.4362 36.5251C17.8664 36.5251 18.2787 36.3543 18.583 36.0502C18.8871 35.7461 19.0579 35.3336 19.0579 34.9035V23.6911C18.568 24.0561 17.9698 24.2463 17.359 24.2317L17.4362 24.2008ZM3.61385 32.8031V1.43629C3.60979 1.05395 3.45504 0.688664 3.18322 0.419737C2.91141 0.150811 2.54447 -1.54428e-05 2.16211 1.18594e-09H1.82234C1.43998 -1.54428e-05 1.07305 0.150811 0.801231 0.419737C0.529416 0.688664 0.374667 1.05395 0.370605 1.43629V32.8031C0.370605 33.1881 0.523563 33.5574 0.79581 33.8297C1.06806 34.1019 1.43732 34.2548 1.82234 34.2548H2.16211C2.54715 34.2548 2.9164 34.1019 3.18864 33.8297C3.46091 33.5574 3.61385 33.1881 3.61385 32.8031ZM7.28952 30.5174H6.94976C6.56474 30.5174 6.19547 30.3645 5.92322 30.0922C5.65098 29.8199 5.49802 29.4507 5.49802 29.0656V5.17374C5.5021 4.79141 5.65683 4.4261 5.92864 4.15719C6.20046 3.88826 6.56739 3.73744 6.94976 3.73745H7.28952C7.67189 3.73744 8.03882 3.88826 8.31064 4.15719C8.58245 4.4261 8.7372 4.79141 8.74126 5.17374V29.0965C8.74126 29.4815 8.5883 29.8508 8.31606 30.1231C8.04381 30.3954 7.67454 30.5483 7.28952 30.5483V30.5174ZM12.4015 26.8417H12.0463C11.6654 26.8417 11.3 26.6903 11.0307 26.421C10.7613 26.1517 10.61 25.7864 10.61 25.4054V8.88031C10.608 8.69039 10.6437 8.50196 10.7149 8.32592C10.786 8.14987 10.8915 7.98971 11.0251 7.8547C11.1587 7.71969 11.3178 7.61251 11.4931 7.53937C11.6684 7.46622 11.8563 7.42856 12.0463 7.42857H12.4015C12.7839 7.43265 13.1491 7.58738 13.418 7.8592C13.6871 8.13101 13.8378 8.49795 13.8378 8.88031V25.4054C13.8378 25.7864 13.6864 26.1517 13.4171 26.421C13.1477 26.6903 12.7825 26.8417 12.4015 26.8417ZM17.5135 23.0579H17.1891C16.8067 23.0579 16.4398 22.9072 16.168 22.6381C15.8962 22.3693 15.7414 22.004 15.7374 21.6216V12.7259C15.7247 12.5276 15.7528 12.3288 15.8202 12.1418C15.8874 11.9549 15.9924 11.7836 16.1284 11.6389C16.2645 11.4941 16.4288 11.3788 16.6114 11.3001C16.7938 11.2215 16.9904 11.181 17.1891 11.1815H17.5289C17.9139 11.1815 18.2832 11.3344 18.5555 11.6066C18.8277 11.8789 18.9806 12.2482 18.9806 12.6332V21.5907C18.9827 21.7827 18.9467 21.9731 18.8745 22.151C18.8026 22.329 18.696 22.4908 18.5609 22.6273C18.4259 22.7637 18.2653 22.872 18.088 22.9459C17.9108 23.0199 17.7209 23.0579 17.5289 23.0579H17.5135ZM22.6409 19.7375H22.3011C21.9161 19.7375 21.5468 19.5846 21.2745 19.3123C21.0023 19.04 20.8494 18.6707 20.8494 18.2857V15.9846C20.8534 15.6022 21.0081 15.2369 21.2799 14.968C21.5518 14.699 21.9187 14.5483 22.3011 14.5483H22.6409C23.0233 14.5483 23.3902 14.699 23.662 14.968C23.9338 15.2369 24.0886 15.6022 24.0926 15.9846V18.2857C24.0926 18.6681 23.9419 19.0351 23.6728 19.3069C23.404 19.5787 23.0387 19.7334 22.6563 19.7375H22.6409Z" fill="#3F64AB"/>
<path d="M48.0347 29.2778L52.7075 9.53906H55.3179L55.9141 12.8262L50.9351 33H48.1313L48.0347 29.2778ZM45.6338 9.53906L49.501 29.2778L49.1787 33H46.0527L40.8481 9.53906H45.6338ZM60.0229 29.1973L63.8418 9.53906H68.6274L63.439 33H60.313L60.0229 29.1973ZM56.7842 9.53906L61.4893 29.3584L61.3604 33H58.5566L53.5454 12.8101L54.1899 9.53906H56.7842ZM80.084 13.5513L73.7031 33H68.563L77.2803 9.53906H80.5513L80.084 13.5513ZM85.3853 33L78.9883 13.5513L78.4727 9.53906H81.7759L90.5415 33H85.3853ZM85.0952 24.2666V28.0532H72.7041V24.2666H85.0952ZM99.855 28.1016L105.382 9.53906H110.764L102.594 33H99.0493L99.855 28.1016ZM94.7632 9.53906L100.274 28.1016L101.112 33H97.5347L89.4136 9.53906H94.7632ZM128.698 29.2295V33H116.21V29.2295H128.698ZM117.789 9.53906V33H112.955V9.53906H117.789ZM127.07 19.0942V22.7681H116.21V19.0942H127.07ZM128.682 9.53906V13.3257H116.21V9.53906H128.682ZM143.731 26.8608C143.731 26.4419 143.667 26.0659 143.538 25.7329C143.42 25.3892 143.194 25.0776 142.861 24.7983C142.528 24.5083 142.061 24.2236 141.459 23.9443C140.858 23.665 140.079 23.375 139.123 23.0742C138.06 22.7305 137.05 22.3438 136.094 21.9141C135.148 21.4844 134.311 20.9849 133.58 20.4155C132.86 19.8354 132.291 19.1641 131.872 18.4014C131.464 17.6387 131.26 16.7524 131.26 15.7427C131.26 14.7651 131.475 13.8789 131.904 13.084C132.334 12.2783 132.936 11.5908 133.709 11.0215C134.482 10.4414 135.396 9.99561 136.448 9.68408C137.512 9.37256 138.677 9.2168 139.945 9.2168C141.674 9.2168 143.184 9.52832 144.473 10.1514C145.762 10.7744 146.761 11.6284 147.47 12.7134C148.189 13.7983 148.549 15.0391 148.549 16.4355H143.748C143.748 15.748 143.603 15.1465 143.312 14.6309C143.033 14.1045 142.604 13.6909 142.023 13.3901C141.454 13.0894 140.734 12.939 139.864 12.939C139.026 12.939 138.328 13.0679 137.77 13.3257C137.211 13.5728 136.792 13.9111 136.513 14.3408C136.233 14.7598 136.094 15.2324 136.094 15.7588C136.094 16.1562 136.19 16.5161 136.384 16.8384C136.588 17.1606 136.889 17.4614 137.286 17.7407C137.684 18.02 138.172 18.2832 138.752 18.5303C139.333 18.7773 140.004 19.019 140.767 19.2554C142.045 19.6421 143.167 20.0771 144.134 20.5605C145.112 21.0439 145.928 21.5864 146.583 22.188C147.239 22.7896 147.733 23.4717 148.066 24.2344C148.399 24.9971 148.565 25.8618 148.565 26.8286C148.565 27.8491 148.367 28.7622 147.969 29.5679C147.572 30.3735 146.997 31.0557 146.245 31.6143C145.493 32.1729 144.596 32.5972 143.554 32.8872C142.512 33.1772 141.347 33.3223 140.058 33.3223C138.897 33.3223 137.753 33.1719 136.625 32.8711C135.498 32.5596 134.472 32.0923 133.548 31.4692C132.635 30.8462 131.904 30.0513 131.356 29.0845C130.809 28.1177 130.535 26.9736 130.535 25.6523H135.385C135.385 26.3828 135.498 27.0005 135.723 27.5054C135.949 28.0103 136.266 28.4185 136.674 28.73C137.093 29.0415 137.587 29.2671 138.156 29.4067C138.736 29.5464 139.37 29.6162 140.058 29.6162C140.896 29.6162 141.583 29.498 142.12 29.2617C142.668 29.0254 143.071 28.6978 143.329 28.2788C143.597 27.8599 143.731 27.3872 143.731 26.8608Z" fill="#3F64AB"/>
</svg>
