<svg width="184" height="44" viewBox="0 0 184 44" fill="none" xmlns="http://www.w3.org/2000/svg">
<path fill-rule="evenodd" clip-rule="evenodd" d="M22.5703 44C34.7206 44 44.5704 34.1503 44.5704 22C44.5704 9.84975 34.7206 0 22.5703 0C10.42 0 0.570312 9.84975 0.570312 22C0.570312 34.1503 10.42 44 22.5703 44ZM29.4336 10.2485C29.7677 9.06186 28.6161 8.36015 27.5644 9.10944L12.8828 19.5685C11.7422 20.3811 11.9216 22 13.1523 22H17.0183V21.9701H24.5531L18.4137 24.1363L15.7071 33.7515C15.373 34.9382 16.5245 35.6399 17.5763 34.8906L32.2579 24.4315C33.3985 23.619 33.219 22 31.9884 22H26.1257L29.4336 10.2485Z" fill="#3F64AB"/>
<path d="M74.6323 29.2295V33H58.0034V29.2295H74.6323ZM74.3906 12.23L60.1465 33H56.7466V30.2285L71.1035 9.53906H74.3906V12.23ZM72.731 9.53906V13.3257H56.7627V9.53906H72.731ZM76.3242 24.46V24.1216C76.3242 22.8433 76.5068 21.667 76.8721 20.5928C77.2373 19.5078 77.769 18.5679 78.4673 17.7729C79.1655 16.978 80.0249 16.3604 81.0454 15.9199C82.0659 15.4688 83.2368 15.2432 84.5581 15.2432C85.8794 15.2432 87.0557 15.4688 88.0869 15.9199C89.1182 16.3604 89.9829 16.978 90.6812 17.7729C91.3901 18.5679 91.9272 19.5078 92.2925 20.5928C92.6577 21.667 92.8403 22.8433 92.8403 24.1216V24.46C92.8403 25.7275 92.6577 26.9038 92.2925 27.9888C91.9272 29.063 91.3901 30.0029 90.6812 30.8086C89.9829 31.6035 89.1235 32.2212 88.103 32.6616C87.0825 33.1021 85.9116 33.3223 84.5903 33.3223C83.269 33.3223 82.0928 33.1021 81.0615 32.6616C80.041 32.2212 79.1763 31.6035 78.4673 30.8086C77.769 30.0029 77.2373 29.063 76.8721 27.9888C76.5068 26.9038 76.3242 25.7275 76.3242 24.46ZM80.9648 24.1216V24.46C80.9648 25.1904 81.0293 25.8726 81.1582 26.5063C81.2871 27.1401 81.4912 27.6987 81.7705 28.1821C82.0605 28.6548 82.4365 29.0254 82.8984 29.2939C83.3604 29.5625 83.9243 29.6968 84.5903 29.6968C85.2349 29.6968 85.7881 29.5625 86.25 29.2939C86.7119 29.0254 87.0825 28.6548 87.3618 28.1821C87.6411 27.6987 87.8452 27.1401 87.9741 26.5063C88.1138 25.8726 88.1836 25.1904 88.1836 24.46V24.1216C88.1836 23.4126 88.1138 22.7466 87.9741 22.1235C87.8452 21.4897 87.6357 20.9312 87.3457 20.4478C87.0664 19.9536 86.6958 19.5669 86.2339 19.2876C85.772 19.0083 85.2134 18.8687 84.5581 18.8687C83.9028 18.8687 83.3442 19.0083 82.8823 19.2876C82.4312 19.5669 82.0605 19.9536 81.7705 20.4478C81.4912 20.9312 81.2871 21.4897 81.1582 22.1235C81.0293 22.7466 80.9648 23.4126 80.9648 24.1216ZM94.9512 24.46V24.1216C94.9512 22.8433 95.1338 21.667 95.499 20.5928C95.8643 19.5078 96.396 18.5679 97.0942 17.7729C97.7925 16.978 98.6519 16.3604 99.6724 15.9199C100.693 15.4688 101.864 15.2432 103.185 15.2432C104.506 15.2432 105.683 15.4688 106.714 15.9199C107.745 16.3604 108.61 16.978 109.308 17.7729C110.017 18.5679 110.554 19.5078 110.919 20.5928C111.285 21.667 111.467 22.8433 111.467 24.1216V24.46C111.467 25.7275 111.285 26.9038 110.919 27.9888C110.554 29.063 110.017 30.0029 109.308 30.8086C108.61 31.6035 107.75 32.2212 106.73 32.6616C105.709 33.1021 104.539 33.3223 103.217 33.3223C101.896 33.3223 100.72 33.1021 99.6885 32.6616C98.668 32.2212 97.8032 31.6035 97.0942 30.8086C96.396 30.0029 95.8643 29.063 95.499 27.9888C95.1338 26.9038 94.9512 25.7275 94.9512 24.46ZM99.5918 24.1216V24.46C99.5918 25.1904 99.6562 25.8726 99.7852 26.5063C99.9141 27.1401 100.118 27.6987 100.397 28.1821C100.688 28.6548 101.063 29.0254 101.525 29.2939C101.987 29.5625 102.551 29.6968 103.217 29.6968C103.862 29.6968 104.415 29.5625 104.877 29.2939C105.339 29.0254 105.709 28.6548 105.989 28.1821C106.268 27.6987 106.472 27.1401 106.601 26.5063C106.741 25.8726 106.811 25.1904 106.811 24.46V24.1216C106.811 23.4126 106.741 22.7466 106.601 22.1235C106.472 21.4897 106.263 20.9312 105.973 20.4478C105.693 19.9536 105.323 19.5669 104.861 19.2876C104.399 19.0083 103.84 18.8687 103.185 18.8687C102.53 18.8687 101.971 19.0083 101.509 19.2876C101.058 19.5669 100.688 19.9536 100.397 20.4478C100.118 20.9312 99.9141 21.4897 99.7852 22.1235C99.6562 22.7466 99.5918 23.4126 99.5918 24.1216ZM118.96 19.1748V33H114.303V15.5654H118.67L118.96 19.1748ZM118.315 23.6704H117.026C117.026 22.4565 117.171 21.3394 117.461 20.3188C117.762 19.2876 118.197 18.396 118.767 17.644C119.347 16.8813 120.061 16.2905 120.91 15.8716C121.758 15.4526 122.741 15.2432 123.858 15.2432C124.632 15.2432 125.341 15.3613 125.985 15.5977C126.63 15.8232 127.183 16.1831 127.645 16.6772C128.118 17.1606 128.483 17.7944 128.741 18.5786C128.999 19.3521 129.127 20.2812 129.127 21.3662V33H124.487V21.8818C124.487 21.0869 124.379 20.4746 124.165 20.0449C123.95 19.6152 123.644 19.3145 123.246 19.1426C122.859 18.9707 122.392 18.8848 121.844 18.8848C121.243 18.8848 120.716 19.0083 120.265 19.2554C119.825 19.5024 119.459 19.8462 119.169 20.2866C118.879 20.7163 118.665 21.2212 118.525 21.8013C118.385 22.3813 118.315 23.0044 118.315 23.6704ZM128.692 23.1387L127.033 23.3481C127.033 22.2095 127.172 21.1514 127.452 20.1738C127.742 19.1963 128.166 18.3369 128.725 17.5957C129.294 16.8545 129.998 16.2798 130.835 15.8716C131.673 15.4526 132.64 15.2432 133.736 15.2432C134.574 15.2432 135.336 15.3667 136.024 15.6138C136.711 15.8501 137.297 16.2314 137.78 16.7578C138.274 17.2734 138.65 17.9502 138.908 18.7881C139.177 19.626 139.311 20.6519 139.311 21.8657V33H134.654V21.8657C134.654 21.0601 134.547 20.4478 134.332 20.0288C134.128 19.5991 133.827 19.3037 133.43 19.1426C133.043 18.9707 132.581 18.8848 132.044 18.8848C131.485 18.8848 130.997 18.9976 130.578 19.2231C130.159 19.438 129.81 19.7388 129.53 20.1255C129.251 20.5122 129.042 20.9634 128.902 21.479C128.762 21.9839 128.692 22.5371 128.692 23.1387ZM150.929 33.3223C149.575 33.3223 148.361 33.1074 147.287 32.6777C146.213 32.2373 145.3 31.6304 144.548 30.8569C143.807 30.0835 143.237 29.1865 142.84 28.166C142.442 27.1348 142.244 26.0391 142.244 24.8789V24.2344C142.244 22.9131 142.432 21.7046 142.808 20.6089C143.184 19.5132 143.721 18.5625 144.419 17.7568C145.128 16.9512 145.987 16.3335 146.997 15.9038C148.007 15.4634 149.146 15.2432 150.413 15.2432C151.648 15.2432 152.744 15.4473 153.7 15.8555C154.656 16.2637 155.457 16.8438 156.101 17.5957C156.756 18.3477 157.25 19.25 157.583 20.3027C157.917 21.3447 158.083 22.5049 158.083 23.7832V25.7168H144.226V22.623H153.523V22.2686C153.523 21.624 153.405 21.0493 153.168 20.5444C152.943 20.0288 152.599 19.6206 152.137 19.3198C151.675 19.019 151.084 18.8687 150.365 18.8687C149.752 18.8687 149.226 19.0029 148.786 19.2715C148.345 19.54 147.985 19.916 147.706 20.3994C147.438 20.8828 147.233 21.4521 147.094 22.1074C146.965 22.752 146.9 23.4609 146.9 24.2344V24.8789C146.9 25.5771 146.997 26.2217 147.19 26.8125C147.395 27.4033 147.679 27.9136 148.044 28.3433C148.42 28.7729 148.872 29.106 149.398 29.3423C149.935 29.5786 150.542 29.6968 151.219 29.6968C152.057 29.6968 152.835 29.5356 153.555 29.2134C154.286 28.8804 154.914 28.3809 155.44 27.7148L157.696 30.1641C157.331 30.6904 156.832 31.1953 156.198 31.6787C155.575 32.1621 154.823 32.5596 153.942 32.8711C153.061 33.1719 152.057 33.3223 150.929 33.3223ZM165.366 19.3682V33H160.726V15.5654H165.092L165.366 19.3682ZM170.619 15.4526L170.539 19.7549C170.313 19.7227 170.039 19.6958 169.717 19.6743C169.405 19.6421 169.121 19.626 168.863 19.626C168.208 19.626 167.638 19.7119 167.155 19.8838C166.682 20.0449 166.285 20.2866 165.962 20.6089C165.651 20.9312 165.415 21.3232 165.253 21.7852C165.103 22.2471 165.017 22.7734 164.996 23.3643L164.061 23.0742C164.061 21.9463 164.174 20.9097 164.399 19.9644C164.625 19.0083 164.953 18.1758 165.382 17.4668C165.823 16.7578 166.36 16.21 166.994 15.8232C167.627 15.4365 168.353 15.2432 169.169 15.2432C169.427 15.2432 169.69 15.2646 169.958 15.3076C170.227 15.3398 170.447 15.3882 170.619 15.4526ZM177.451 19.3682V33H172.811V15.5654H177.177L177.451 19.3682ZM182.704 15.4526L182.624 19.7549C182.398 19.7227 182.124 19.6958 181.802 19.6743C181.49 19.6421 181.206 19.626 180.948 19.626C180.292 19.626 179.723 19.7119 179.24 19.8838C178.767 20.0449 178.37 20.2866 178.047 20.6089C177.736 20.9312 177.5 21.3232 177.338 21.7852C177.188 22.2471 177.102 22.7734 177.081 23.3643L176.146 23.0742C176.146 21.9463 176.259 20.9097 176.484 19.9644C176.71 19.0083 177.038 18.1758 177.467 17.4668C177.908 16.7578 178.445 16.21 179.079 15.8232C179.712 15.4365 180.438 15.2432 181.254 15.2432C181.512 15.2432 181.775 15.2646 182.043 15.3076C182.312 15.3398 182.532 15.3882 182.704 15.4526Z" fill="#3F64AB"/>
</svg>
