<svg width="173" height="44" viewBox="0 0 173 44" fill="none" xmlns="http://www.w3.org/2000/svg">
<path fill-rule="evenodd" clip-rule="evenodd" d="M0.570312 22.4788L0.572435 22.2584L0.576813 22.0378L0.583458 21.8173L0.592357 21.5967L0.603533 21.3762L0.616963 21.1556L0.632671 20.9352L0.650634 20.7148L0.670874 20.4944L0.693381 20.2741L0.718152 20.0541L0.74518 19.8341L0.774484 19.6143L0.806053 19.3948L0.839878 19.1754L0.875969 18.9564L0.914327 18.7375L0.954927 18.5191L0.997794 18.3008L1.04292 18.0829L1.09029 17.8653L1.1399 17.6482L1.19178 17.4315L1.24588 17.2151L1.30223 16.9993L1.36081 16.7838L1.42162 16.5689L1.48467 16.3545L1.54993 16.1406L1.6174 15.9273L1.6871 15.7146L1.75901 15.5024L1.83311 15.2909L1.90941 15.08L1.9879 14.8698L2.06858 14.6603L2.15144 14.4515L2.23647 14.2433L2.32367 14.0361L2.41302 13.8295L2.50453 13.6237L2.59818 13.4188L2.69397 13.2147L2.79189 13.0115L2.89194 12.8091L2.9941 12.6077L3.09835 12.4071L3.20471 12.2075L3.31315 12.0089L3.42367 11.8113L3.53626 11.6146L3.65091 11.419L3.76761 11.2244L3.88634 11.0309L4.00711 10.8385L4.12989 10.6472L4.25469 10.4572L4.38148 10.2681L4.51026 10.0803L4.64102 9.89362L4.77373 9.70816L4.90839 9.52402L5.045 9.34098L5.18354 9.15937L5.324 8.97897L5.46635 8.79982L5.61059 8.62206L5.75671 8.44565L5.9047 8.27059L6.05454 8.09691L6.20622 7.92464L6.35971 7.7538L6.51502 7.58439L6.67213 7.41644L6.83102 7.24997L6.99167 7.08499L7.15408 6.92152L7.31822 6.75958L7.48409 6.59919L7.65166 6.44036L7.82093 6.28312L7.99187 6.12747L8.16447 5.97345L8.33872 5.82106L8.5146 5.6703L8.69209 5.52123L8.87117 5.37384L9.05183 5.22815L9.23406 5.08417L9.41783 4.94192L9.60307 4.80142L9.78996 4.66268L9.97828 4.52573L10.168 4.39057L10.3592 4.25722L10.5519 4.12569L10.746 3.99599L10.9414 3.86816L11.1383 3.74219L11.3367 3.61811L11.5362 3.49592L11.7372 3.37564L11.9394 3.25729L12.1429 3.14087L12.3477 3.02641L12.5537 2.91391L12.761 2.80338L12.9694 2.69486L13.1791 2.58832L13.3899 2.48381L13.6019 2.38132L13.8151 2.28087L14.0293 2.18248L14.2446 2.08615L14.461 1.99189L14.6785 1.89972L14.8969 1.80965L15.1164 1.72169L15.3368 1.63583L15.5583 1.55212L15.7806 1.47053L16.0039 1.39112L16.228 1.31384L16.4531 1.23873L16.6789 1.16581L16.9056 1.09507L17.1332 1.02653L17.3616 0.960201L17.5906 0.896082L17.8205 0.834174L18.0511 0.774499L18.2823 0.717068L18.5142 0.661892L18.7468 0.608949L18.98 0.558283L19.2138 0.509872L19.4482 0.463738L19.6831 0.419892L19.9187 0.378323L20.1547 0.339053L20.3912 0.302082L20.6282 0.26741L20.8655 0.235059L21.1034 0.205018L21.3416 0.177298L21.5802 0.151888L21.8191 0.128832L22.0584 0.108097L22.298 0.0896941L22.5378 0.0736451L23.8274 0L23.901 6.21354L23.9431 6.21305L24.1212 6.2128L24.2993 6.2143L24.4774 6.21754L24.6557 6.22255L24.8339 6.2293L25.0122 6.23779L25.1905 6.24806L25.3688 6.26008L25.547 6.27384L25.7253 6.28937L25.9034 6.30666L26.0815 6.32572L26.2594 6.34652L26.4373 6.36908L26.6149 6.3934L26.7924 6.41947L26.9698 6.44731L27.147 6.4769L27.3239 6.50824L27.5006 6.54134L27.6771 6.57619L27.8532 6.61279L28.0292 6.65114L28.2047 6.69123L28.38 6.73307L28.555 6.77665L28.7295 6.82198L28.9037 6.86904L29.0775 6.91783L29.2509 6.96836L29.4239 7.02061L29.5963 7.07458L29.7684 7.13029L29.94 7.18771L30.111 7.24683L30.2815 7.30767L30.4516 7.37021L30.621 7.43446L30.7898 7.50039L30.9581 7.56803L31.1258 7.63736L31.2928 7.70835L31.4592 7.78103L31.625 7.85537L31.79 7.93139L31.9543 8.00904L32.118 8.08837L32.2809 8.16934L32.443 8.25195L32.6044 8.33619L32.765 8.42205L32.9248 8.50955L33.0838 8.59865L33.242 8.68935L33.3993 8.78165L33.5557 8.87557L33.7112 8.97105L33.8659 9.06807L34.0196 9.16674L34.1723 9.26684L34.3241 9.36859L34.4751 9.47188L34.6249 9.5766L34.7738 9.68297L34.9217 9.79077L35.0684 9.90011L35.2143 10.011L35.3589 10.1233L35.5026 10.2372L35.645 10.3523L35.7865 10.469L35.9267 10.5873L36.0659 10.7068L36.2039 10.8279L36.3408 10.9503L36.4763 11.0741L36.6107 11.1994L36.7439 11.326L36.8759 11.454L37.0066 11.5833L37.1361 11.714L37.2642 11.8461L37.3912 11.9794L37.5167 12.1141L37.641 12.25L37.7638 12.3873L37.8854 12.5258L38.0056 12.6656L38.1244 12.8066L38.2419 12.9489L38.358 13.0924L38.4726 13.2371L38.5858 13.3829L38.6975 13.53L38.8079 13.6783L38.9166 13.8277L39.024 13.9783L39.1298 14.1299L39.2342 14.2826L39.3371 14.4365L39.4384 14.5915L39.5381 14.7476L39.6363 14.9047L39.733 15.0627L39.828 15.2219L39.9215 15.3821L40.0133 15.5432L40.1037 15.7054L40.1923 15.8685L40.2793 16.0325L40.3647 16.1975L40.4484 16.3634L40.5305 16.5301L40.6109 16.6979L40.6896 16.8664L40.7666 17.0358L40.842 17.2061L40.9156 17.3771L40.9874 17.5491L41.0576 17.7217L41.126 17.8951L41.1927 18.0693L41.2576 18.2443L41.3207 18.4198L41.3821 18.5963L41.4417 18.7733L41.4996 18.951L41.5555 19.1293L41.6098 19.3083L41.6621 19.4879L41.7127 19.6681L41.7615 19.849L41.8084 20.0303L41.8534 20.2122L41.8968 20.3947L41.9381 20.5776L41.9776 20.7611L42.0153 20.9449L42.0511 21.1294L42.085 21.3141L42.1171 21.4994L42.1472 21.685L42.1755 21.871L42.2019 22.0574L42.2263 22.2441L42.2489 22.4312L42.2696 22.6185L42.2883 22.8062L42.3051 22.9941L42.32 23.1823L42.333 23.3707L42.344 23.5594L42.3532 23.7481L42.3604 23.9372L42.3656 24.1263L42.369 24.3156L42.3703 24.505L42.3698 24.6946L42.3672 24.8842L42.3627 25.074L42.3563 25.2636L42.348 25.4533L42.3378 25.6431L42.3254 25.8328L42.3112 26.0226L42.2951 26.2122L42.2769 26.4019L42.2569 26.5914L42.2348 26.7807L42.2108 26.97L42.185 27.1591L42.157 27.3481L42.1272 27.5369L42.0954 27.7254L42.0617 27.9137L42.026 28.1018L41.9884 28.2897L41.9488 28.4772L41.9072 28.6645L41.8638 28.8515L41.8184 29.038L41.771 29.2242L41.7218 29.41L41.6706 29.5955L41.6175 29.7805L41.5625 29.9651L41.5055 30.1494L41.4465 30.3329L41.3858 30.5162L41.3231 30.6988L41.2584 30.881L41.192 31.0626L41.1236 31.2435L41.0533 31.4239L40.9811 31.6038L40.9071 31.783L40.8312 31.9615L40.7534 32.1395L40.6738 32.3166L40.5923 32.4931L40.5089 32.6689L40.4238 32.8439L40.3366 33.0183L40.2479 33.1917L40.1571 33.3645L40.0647 33.5364L39.9703 33.7075L39.8743 33.8777L39.7764 34.0471L39.6767 34.2156L39.5753 34.3831L39.4721 34.5499L39.3671 34.7156L39.2604 34.8803L39.152 35.0441L39.0418 35.2069L38.93 35.3687L38.8163 35.5296L38.701 35.6893L38.584 35.848L38.4653 36.0056L38.345 36.1622L38.223 36.3175L38.0993 36.4718L37.9741 36.6249L37.8471 36.7768L37.7185 36.9277L37.5884 37.0773L37.4566 37.2257L37.3233 37.3728L37.1884 37.5188L37.052 37.6634L36.914 37.8069L36.7745 37.9489L36.6334 38.0897L36.4908 38.2292L36.3468 38.3673L36.2013 38.5042L36.0543 38.6396L35.9058 38.7737L35.7559 38.9062L35.6047 39.0375L35.4519 39.1674L35.2978 39.2957L35.1422 39.4226L34.9854 39.5481L34.8271 39.672L34.6675 39.7945L34.5065 39.9154L34.3443 40.0348L34.1808 40.1527L34.0159 40.269L33.8498 40.3839L33.6825 40.497L33.514 40.6086L33.3442 40.7186L33.1732 40.8271L33.0011 40.9338L32.8277 41.0389L32.6531 41.1423L32.4775 41.2442L32.3008 41.3443L32.1228 41.4426L31.944 41.5394L31.7639 41.6343L31.5828 41.7276L31.4007 41.8193L31.2175 41.909L31.0334 41.997L30.8483 42.0834L30.6621 42.1678L30.4751 42.2506L30.2871 42.3314L30.0983 42.4105L29.9085 42.4878L29.7179 42.5633L29.5264 42.6369L29.334 42.7087L29.1408 42.7786L28.9468 42.8467L28.7521 42.9128L28.5566 42.9771L28.3603 43.0395L28.1633 43.1L27.9656 43.1586L27.7673 43.2153L27.5682 43.27L27.3685 43.3229L27.1681 43.3738L26.9672 43.4227L26.7657 43.4698L26.5635 43.5148L26.3609 43.5579L26.1577 43.5991L25.954 43.6382L25.7499 43.6754L25.5453 43.7105L25.3401 43.7437L25.1346 43.7749L24.9286 43.8041L24.7224 43.8313L24.5157 43.8565L24.3085 43.8795L24.1012 43.9007L23.8935 43.9198L23.6856 43.9369L23.4774 43.9519L23.2689 43.9649L23.0601 43.9759L22.8513 43.9848L22.6423 43.9916L22.4329 43.9965L22.2236 43.9992L22.014 44L21.8045 43.9987L21.5948 43.9953L21.3851 43.9899L21.1753 43.9823L20.9655 43.9727L20.7558 43.9612L20.5461 43.9474L20.3363 43.9317L20.1268 43.9139L19.9172 43.894L19.7078 43.8721L19.4986 43.8481L19.2895 43.822L19.0805 43.7939L18.8718 43.7636L18.6632 43.7314L18.455 43.6971L18.247 43.6608L18.0392 43.6223L17.8318 43.5818L17.6247 43.5393L17.418 43.4947L17.2116 43.448L17.0056 43.3994L16.8 43.3487L16.5949 43.2959L16.3902 43.2411L16.186 43.1843L15.9823 43.1255L15.779 43.0647L15.5764 43.0017L15.3743 42.9369L15.1728 42.87L14.9718 42.801L14.7715 42.7301L14.5719 42.6572L14.3729 42.5823L14.1746 42.5054L13.977 42.4266L13.7801 42.3457L13.584 42.2629L13.3886 42.1782L13.194 42.0915L13.0002 42.0028L12.8073 41.9122L12.6152 41.8197L12.424 41.7252L12.2336 41.6288L12.0442 41.5306L11.8558 41.4304L11.6681 41.3284L11.4815 41.2245L11.296 41.1187L11.1114 41.011L10.9278 40.9014L10.7453 40.7901L10.5638 40.6768L10.3834 40.5618L10.2042 40.4449L10.026 40.3263L9.84903 40.2058L9.67325 40.0836L9.49857 39.9596L9.32511 39.8338L9.15288 39.7063L8.98187 39.5769L8.81213 39.4459L8.64365 39.3132L8.47646 39.1787L8.31059 39.0426L8.14605 38.9048L7.98284 38.7653L7.821 38.6242L7.66054 38.4813L7.50148 38.3369L7.34384 38.1909L7.18762 38.0432L7.03286 37.894L6.87956 37.7431L6.72774 37.5907L6.57742 37.4369L6.42863 37.2813L6.28136 37.1243L6.13564 36.9658L5.9915 36.8058L5.84893 36.6443L5.70795 36.4814L5.56859 36.3169L5.43086 36.1512L5.29478 35.9839L5.16035 35.8152L5.0276 35.6452L4.89654 35.4738L4.76718 35.301L4.63953 35.1268L4.51363 34.9514L4.38946 34.7746L4.26706 34.5967L4.14643 34.4174L4.0276 34.2367L3.91057 34.055L3.79535 33.872L3.68196 33.6877L3.57042 33.5024L3.46073 33.3157L3.35292 33.128L3.24698 32.9392L3.14293 32.7492L3.04079 32.558L2.94056 32.3659L2.84227 32.1727L2.74591 31.9784L2.65152 31.7832L2.55909 31.5868L2.46863 31.3896L2.38015 31.1913L2.29367 30.9922L2.2092 30.792L2.12676 30.591L2.04633 30.389L1.96794 30.1862L1.89161 29.9826L1.81733 29.7781L1.74511 29.5728L1.67497 29.3668L1.60691 29.1599L1.54095 28.9523L1.47709 28.744L1.41534 28.535L1.35571 28.3252L1.2982 28.1148L1.24283 27.9038L1.1896 27.6922L1.13852 27.4799L1.0896 27.267L1.04284 27.0535L0.998245 26.8396L0.95583 26.6251L0.915591 26.4101L0.877542 26.1946L0.841694 25.9787L0.808033 25.7623L0.776585 25.5455L0.747346 25.3283L0.72033 25.1107L0.695526 24.8928L0.672943 24.6745L0.652593 24.4561L0.634476 24.2372L0.618592 24.0181L0.604952 23.7987L0.593556 23.5792L0.584403 23.3594L0.577496 23.1395L0.572843 22.9194L0.570455 22.6992L0.570312 22.4788ZM21.8862 6.34369L21.8361 2.10847L21.7884 2.11307L21.5698 2.13634L21.3516 2.16173L21.1336 2.18928L20.9165 2.21886L20.6995 2.25061L20.4828 2.28448L20.2668 2.32043L20.051 2.35852L19.8363 2.39859L19.6212 2.44091L19.4077 2.48513L19.1939 2.53158L18.9811 2.58001L18.7686 2.63058L18.5571 2.6831L18.3461 2.73772L18.1357 2.79439L17.9259 2.85309L17.7171 2.91377L17.5087 2.97653L17.3013 3.04125L17.0945 3.10802L16.8888 3.17663L16.6834 3.24742L16.4792 3.3201L16.2759 3.3947L16.0732 3.47134L15.8715 3.54984L15.671 3.63024L15.471 3.71271L15.272 3.79705L15.074 3.88331L14.8771 3.97139L14.6812 4.06138L14.4864 4.15318L14.2923 4.24701L14.0995 4.34256L13.9078 4.43996L13.7172 4.53921L13.5277 4.64028L13.3394 4.74309L13.152 4.8478L12.9658 4.95432L12.7812 5.06237L12.5972 5.17252L12.4149 5.28414L12.2338 5.39749L12.0537 5.51271L11.8749 5.6296L11.6975 5.7482L11.5217 5.8682L11.3466 5.99033L11.1732 6.11376L11.0012 6.23889L10.8303 6.36574L10.6611 6.4941L10.4933 6.624L10.3265 6.75573L10.1617 6.88871L9.99797 7.02343L9.83583 7.15963L9.67512 7.2974L9.51606 7.4365L9.35819 7.57735L9.20212 7.71946L9.04739 7.86321L8.89444 8.00817L8.74289 8.1547L8.59303 8.30255L8.4447 8.45186L8.2978 8.60272L8.15283 8.7546L8.00949 8.9078L7.86743 9.06279L7.72733 9.21877L7.58895 9.37585L7.45199 9.53458L7.31702 9.6943L7.18355 9.85545L7.05186 10.0177L6.92191 10.1813L6.79365 10.3459L6.66728 10.5117L6.54256 10.6787L6.41956 10.847L6.29854 11.0161L6.17914 11.1866L6.06163 11.3579L5.94595 11.5304L5.832 11.704L5.71997 11.8786L5.60979 12.054L5.50145 12.2306L5.39504 12.408L5.29039 12.5865L5.18762 12.7661L5.08687 12.9462L4.98792 13.1274L4.89087 13.3096L4.79579 13.4925L4.70257 13.6763L4.61136 13.8608L4.52205 14.0461L4.43471 14.2322L4.34927 14.4192L4.26586 14.6068L4.18434 14.7952L4.10481 14.9843L4.02732 15.174L3.95176 15.3644L3.87818 15.5554L3.80662 15.7471L3.73705 15.9393L3.66953 16.1321L3.60396 16.3255L3.54042 16.5195L3.47892 16.714L3.41946 16.9088L3.36197 17.1043L3.30656 17.3001L3.25318 17.4965L3.20182 17.6932L3.15251 17.8904L3.10525 18.0879L3.06004 18.2857L3.01688 18.484L2.97577 18.6825L2.93672 18.8813L2.89972 19.0804L2.86478 19.2797L2.8319 19.4794L2.80109 19.6791L2.77234 19.8791L2.74565 20.0793L2.72102 20.2796L2.69846 20.48L2.67797 20.6807L2.65954 20.8813L2.64317 21.0819L2.62887 21.2828L2.61664 21.4837L2.60647 21.6844L2.59836 21.8853L2.59231 22.086L2.58833 22.2868L2.58639 22.4874L2.58652 22.6881L2.5887 22.8885L2.59294 23.0889L2.59922 23.2891L2.60755 23.4891L2.61793 23.6889L2.63034 23.8885L2.64479 24.0879L2.66128 24.287L2.6798 24.4859L2.70034 24.6846L2.72291 24.8828L2.7475 25.0808L2.7741 25.2783L2.80271 25.4756L2.83333 25.6725L2.86594 25.8688L2.90055 26.0648L2.93715 26.2604L2.97573 26.4554L3.01628 26.6501L3.05881 26.8442L3.1033 27.0378L3.14976 27.2308L3.19816 27.4233L3.24852 27.6153L3.30079 27.8065L3.35502 27.9972L3.41116 28.1873L3.46922 28.3767L3.52919 28.5655L3.59104 28.7535L3.6548 28.9408L3.72045 29.1273L3.78797 29.3132L3.85733 29.4983L3.9286 29.6826L4.00167 29.8661L4.0766 30.0488L4.15336 30.2306L4.23194 30.4116L4.31234 30.5918L4.39453 30.7711L4.47851 30.9494L4.56427 31.1268L4.65181 31.3033L4.74109 31.4788L4.83214 31.6534L4.92492 31.827L5.01943 31.9996L5.11564 32.171L5.21357 32.3415L5.31318 32.5111L5.41449 32.6794L5.51742 32.8467L5.62207 33.0129L5.72832 33.1779L5.83623 33.3419L5.94576 33.5047L6.05687 33.6663L6.16958 33.8268L6.2839 33.986L6.39975 34.1441L6.5172 34.301L6.63613 34.4565L6.75666 34.6108L6.87863 34.7639L7.00213 34.9157L7.12716 35.0662L7.25358 35.2154L7.38151 35.3632L7.51086 35.5098L7.64168 35.655L7.77388 35.7987L7.90746 35.9412L8.04245 36.0822L8.17879 36.2219L8.31653 36.3602L8.45557 36.4969L8.59598 36.6323L8.73764 36.7662L8.8806 36.8987L9.02489 37.0297L9.17041 37.1592L9.31709 37.2871L9.46513 37.4136L9.6144 37.5386L9.76466 37.662L9.91635 37.784L10.069 37.9042L10.2229 38.023L10.3779 38.1403L10.5341 38.2559L10.6913 38.3699L10.8496 38.4823L11.0089 38.5931L11.1694 38.7023L11.3307 38.8098L11.4933 38.9157L11.6567 39.02L11.8211 39.1225L11.9866 39.2235L12.1528 39.3227L12.3201 39.4203L12.4882 39.5161L12.6572 39.6102L12.8271 39.7026L12.9979 39.7934L13.1694 39.8824L13.3418 39.9697L13.515 40.0552L13.689 40.139L13.8637 40.2211L14.0392 40.3014L14.2153 40.3798L14.3923 40.4566L14.5698 40.5315L14.7481 40.6047L14.927 40.6761L15.1065 40.7457L15.2867 40.8135L15.4673 40.8795L15.6486 40.9437L15.8305 41.006L16.0129 41.0666L16.1958 41.1254L16.3791 41.1822L16.5631 41.2373L16.7474 41.2906L16.9322 41.342L17.1174 41.3916L17.303 41.4393L17.489 41.4852L17.6752 41.5292L17.862 41.5714L18.049 41.6117L18.2362 41.6502L18.4239 41.6868L18.6117 41.7216L18.7998 41.7545L18.9882 41.7855L19.1767 41.8146L19.3655 41.8419L19.5544 41.8673L19.7434 41.891L19.9326 41.9126L20.1219 41.9324L20.3114 41.9505L20.5009 41.9665L20.6904 41.9808L20.8799 41.9932L21.0696 42.0037L21.2591 42.0123L21.4486 42.0191L21.6382 42.0241L21.8277 42.027L22.017 42.0283L22.2063 42.0276L22.3955 42.0251L22.5845 42.0208L22.7734 42.0145L22.9621 42.0065L23.1507 41.9966L23.3389 41.9848L23.527 41.9713L23.7149 41.9559L23.9024 41.9386L24.0896 41.9195L24.2766 41.8986L24.4632 41.8759L24.6495 41.8514L24.8354 41.825L25.021 41.7968L25.2061 41.7669L25.3909 41.7351L25.5753 41.7016L25.7591 41.6662L25.9425 41.6292L26.1254 41.5902L26.3078 41.5496L26.4896 41.5072L26.671 41.463L26.8517 41.4171L27.0319 41.3694L27.2114 41.32L27.3905 41.2688L27.5688 41.2159L27.7466 41.1613L27.9236 41.1051L28.1 41.047L28.2757 40.9874L28.4505 40.9261L28.6248 40.8629L28.7983 40.7982L28.971 40.7318L29.1429 40.6638L29.314 40.5942L29.4843 40.5228L29.6538 40.4499L29.8224 40.3753L29.99 40.2992L30.157 40.2214L30.323 40.142L30.488 40.0611L30.6522 39.9785L30.8154 39.8945L30.9776 39.8089L31.139 39.7217L31.2991 39.633L31.4584 39.5428L31.6166 39.4512L31.774 39.3579L31.93 39.2633L32.0853 39.167L32.2392 39.0695L32.3921 38.9704L32.544 38.8698L32.6948 38.7677L32.8442 38.6646L32.9926 38.5597L33.1399 38.4536L33.286 38.3461L33.4309 38.2371L33.5745 38.127L33.7172 38.0152L33.8583 37.9024L33.9982 37.7882L34.1371 37.6726L34.2746 37.5556L34.4107 37.4376L34.5457 37.3182L34.6792 37.1976L34.8116 37.0757L34.9426 36.9526L35.072 36.8284L35.2004 36.7028L35.3273 36.5761L35.4529 36.4483L35.577 36.3193L35.6997 36.1892L35.8209 36.0581L35.941 35.9255L36.0594 35.7921L36.1765 35.6575L36.292 35.522L36.4062 35.3852L36.5189 35.2476L36.63 35.1089L36.7397 34.9691L36.8479 34.8285L36.9547 34.6867L37.0597 34.5442L37.1635 34.4005L37.2658 34.2559L37.3661 34.1107L37.4652 33.9643L37.5625 33.8172L37.6585 33.669L37.753 33.52L37.8456 33.3704L37.9367 33.2199L38.0263 33.0682L38.1141 32.9163L38.2004 32.7633L38.2852 32.6095L38.3682 32.4553L38.4497 32.3L38.5296 32.144L38.6075 31.9879L38.6841 31.8305L38.759 31.6725L38.8322 31.5141L38.9037 31.3551L38.9735 31.1953L39.0416 31.0352L39.1082 30.8741L39.1729 30.7127L39.236 30.5511L39.2974 30.3883L39.357 30.2255L39.4151 30.0619L39.4714 29.898L39.5259 29.7336L39.5786 29.5691L39.6299 29.4034L39.6792 29.238L39.7268 29.072L39.7728 28.9058L39.817 28.7389L39.8593 28.5721L39.9002 28.4046L39.9391 28.2369L39.9764 28.069L40.0119 27.9007L40.0456 27.7325L40.0776 27.5636L40.1078 27.3951L40.1363 27.2259L40.1631 27.0566L40.188 26.8873L40.2113 26.7177L40.2328 26.5483L40.2526 26.3781L40.2705 26.2086L40.2868 26.0385L40.3012 25.8688L40.314 25.6985L40.325 25.5289L40.3342 25.3587L40.3417 25.1885L40.3474 25.0186L40.3515 24.8491L40.3537 24.6789L40.3542 24.5091L40.353 24.3395L40.3501 24.17L40.3453 24.0005L40.3388 23.8316L40.3307 23.6621L40.3208 23.4934L40.3091 23.3246L40.2958 23.1564L40.2808 22.9879L40.264 22.8202L40.2456 22.6523L40.2253 22.485L40.2034 22.3178L40.1799 22.1511L40.1545 21.9844L40.1275 21.8184L40.0989 21.653L40.0686 21.4874L40.0364 21.3224L40.0028 21.1581L39.9674 20.9936L39.9305 20.8304L39.8917 20.6669L39.8515 20.5045L39.8094 20.342L39.7658 20.1806L39.7206 20.0194L39.6738 19.8586L39.6254 19.6988L39.5753 19.5395L39.5235 19.3804L39.4704 19.2224L39.4154 19.0645L39.3591 18.9077L39.301 18.7511L39.2415 18.5957L39.1802 18.4405L39.1175 18.2862L39.0534 18.1328L38.9877 17.9802L38.9202 17.8277L38.8516 17.6767L38.7811 17.5258L38.7094 17.3763L38.6361 17.2273L38.5612 17.0789L38.4851 16.9318L38.4073 16.7852L38.328 16.6394L38.2477 16.4949L38.1656 16.3508L38.0822 16.208L37.9972 16.0657L37.9111 15.9249L37.8232 15.7845L37.7344 15.6453L37.6438 15.5068L37.5521 15.3695L37.4591 15.2335L37.3645 15.0979L37.2687 14.9636L37.1717 14.8303L37.0733 14.6982L36.9736 14.5669L36.8726 14.4368L36.7704 14.3077L36.6669 14.1798L36.5622 14.0529L36.4562 13.9271L36.3489 13.8025L36.2406 13.6789L36.1311 13.5566L36.0203 13.4354L35.9081 13.3152L35.7954 13.1966L35.6808 13.0787L35.5656 12.9624L35.4491 12.847L35.3316 12.733L35.2126 12.62L35.0932 12.5087L34.9722 12.3982L34.8502 12.2891L34.7275 12.1814L34.6037 12.0749L34.4784 11.9694L34.3524 11.8655L34.2256 11.7628L34.0977 11.6615L33.9687 11.5614L33.8392 11.463L33.7081 11.3653L33.5767 11.2695L33.4441 11.1749L33.3106 11.0815L33.1765 10.9897L33.041 10.8989L32.9055 10.81L32.7684 10.7221L32.6309 10.6358L32.4923 10.5508L32.3532 10.4672L32.2132 10.3851L32.0728 10.3046L31.931 10.2251L31.7892 10.1474L31.6462 10.0709L31.5026 9.99603L31.3585 9.92266L31.2136 9.85061L31.068 9.77999L30.922 9.71102L30.7751 9.64337L30.6279 9.57737L30.48 9.51269L30.3267 9.44757L30.1826 9.38806L30.0327 9.32778L29.883 9.26937L29.7321 9.21206L29.5812 9.15662L29.4296 9.1025L29.2777 9.05003L29.1251 8.99888L28.9724 8.94949L28.8191 8.90153L28.6654 8.85511L28.5116 8.81034L28.3572 8.76696L28.2022 8.72507L28.0474 8.68489L27.8923 8.64623L27.7362 8.609L27.5807 8.57348L27.4244 8.53938L27.2681 8.50693L27.1112 8.47595L26.9546 8.4466L26.7975 8.41877L26.6405 8.39256L26.4828 8.36781L26.3255 8.3447L26.1679 8.32312L26.01 8.30309L25.8522 8.28463L25.6943 8.26775L25.5364 8.25242L25.3783 8.23865L25.2201 8.22643L25.0618 8.21576L24.904 8.20667L24.746 8.19914L24.5875 8.19314L24.4299 8.18872L24.2719 8.18584L24.1141 8.18452L23.956 8.18474L23.9243 8.1851L23.9741 12.3895L24.0638 12.3891L24.1792 12.3897L24.2946 12.3915L24.4101 12.3945L24.5257 12.3985L24.6413 12.4038L24.7569 12.4102L24.8726 12.4177L24.9883 12.4264L25.1041 12.4362L25.2198 12.4472L25.3354 12.4593L25.4511 12.4726L25.5667 12.487L25.6822 12.5025L25.7977 12.5193L25.9131 12.5371L26.0284 12.5562L26.1437 12.5764L26.2587 12.5978L26.3737 12.6203L26.4885 12.644L26.6032 12.6687L26.7178 12.6947L26.832 12.7218L26.9462 12.7501L27.0601 12.7795L27.1738 12.8101L27.2873 12.8417L27.4006 12.8746L27.5137 12.9086L27.6265 12.9437L27.7389 12.98L27.8511 13.0174L27.9631 13.056L28.0746 13.0957L28.1859 13.1365L28.2968 13.1784L28.4075 13.2216L28.5177 13.2658L28.6276 13.3111L28.737 13.3576L28.8461 13.4051L28.9548 13.4539L29.0631 13.5036L29.1709 13.5545L29.2783 13.6066L29.3853 13.6597L29.4917 13.7139L29.5978 13.7693L29.7033 13.8256L29.8083 13.8831L29.9128 13.9416L30.0168 14.0012L30.1203 14.062L30.2232 14.1238L30.3255 14.1866L30.4273 14.2505L30.5285 14.3155L30.6291 14.3815L30.7291 14.4485L30.8286 14.5166L30.9273 14.5858L31.0255 14.6558L31.1229 14.727L31.2197 14.7993L31.316 14.8724L31.4113 14.9467L31.5062 15.0219L31.6002 15.0981L31.6936 15.1753L31.7862 15.2535L31.8782 15.3326L31.9694 15.4126L32.0598 15.4937L32.1494 15.5758L32.2382 15.6587L32.3263 15.7427L32.4136 15.8275L32.5 15.9133L32.5857 15.9999L32.6705 16.0876L32.7546 16.176L32.8376 16.2655L32.9199 16.3558L33.0013 16.447L33.0818 16.5389L33.1614 16.6319L33.2402 16.7256L33.3181 16.8202L33.395 16.9157L33.471 17.0119L33.546 17.1091L33.6201 17.207L33.6933 17.3058L33.7655 17.4052L33.8367 17.5055L33.9069 17.6066L33.9762 17.7085L34.0444 17.8111L34.1116 17.9144L34.1778 18.0186L34.2431 18.1234L34.3073 18.2289L34.3705 18.3351L34.4325 18.4422L34.4935 18.5497L34.5535 18.6581L34.6123 18.7671L34.6702 18.8768L34.727 18.9871L34.7825 19.0981L34.8371 19.2097L34.8905 19.3219L34.9428 19.4347L34.9939 19.5482L35.044 19.6622L35.0929 19.7768L35.1407 19.892L35.1873 20.0077L35.2327 20.124L35.277 20.2407L35.3201 20.358L35.362 20.4758L35.4028 20.5942L35.4424 20.713L35.4807 20.8323L35.5179 20.952L35.5538 21.0723L35.5886 21.1929L35.6221 21.314L35.6544 21.4356L35.6855 21.5575L35.7153 21.6798L35.7439 21.8024L35.7713 21.9255L35.7974 22.049L35.8222 22.1727L35.8458 22.2968L35.8681 22.4213L35.8892 22.546L35.909 22.671L35.9275 22.7964L35.9448 22.9219L35.9607 23.0477L35.9755 23.1739L35.9888 23.3003L36.0009 23.4268L36.0118 23.5536L36.0212 23.6806L36.0295 23.8077L36.0363 23.935L36.0419 24.0625L36.0462 24.1902L36.0492 24.3179L36.0508 24.4458L36.0511 24.5739L36.0502 24.7019L36.0478 24.8301L36.0442 24.9583L36.0393 25.0867L36.033 25.215L36.0254 25.3433L36.0165 25.4718L36.0063 25.6002L35.9946 25.7286L35.9817 25.8569L35.9674 25.9852L35.9519 26.1136L35.935 26.2417L35.9167 26.3699L35.8971 26.4979L35.8762 26.6258L35.854 26.7537L35.8304 26.8814L35.8055 27.009L35.7792 27.1363L35.7516 27.2636L35.7228 27.3907L35.6925 27.5175L35.661 27.6441L35.6281 27.7706L35.5939 27.8968L35.5583 28.0227L35.5215 28.1483L35.4833 28.2737L35.4438 28.3989L35.4029 28.5238L35.3608 28.6482L35.3173 28.7724L35.2727 28.8962L35.2266 29.0197L35.1792 29.1427L35.1306 29.2655L35.0806 29.3878L35.0294 29.5098L34.9768 29.6313L34.923 29.7524L34.8679 29.873L34.8114 29.9932L34.7538 30.1128L34.6948 30.2321L34.6346 30.3508L34.5731 30.469L34.5104 30.5866L34.4464 30.7038L34.3811 30.8203L34.3147 30.9364L34.2469 31.0518L34.178 31.1667L34.1078 31.2809L34.0364 31.3947L33.9637 31.5076L33.8899 31.6201L33.8147 31.7317L33.7385 31.8428L33.6611 31.9532L33.5824 32.0629L33.5026 32.1719L33.4216 32.2803L33.3394 32.3879L33.256 32.4947L33.1716 32.6007L33.0859 32.7061L32.9991 32.8106L32.9112 32.9144L32.8221 33.0174L32.7319 33.1196L32.6406 33.2209L32.5482 33.3214L32.4547 33.4211L32.3602 33.52L32.2645 33.6179L32.1678 33.715L32.0699 33.8111L31.9711 33.9065L31.8711 34.0009L31.7703 34.0943L31.6683 34.1869L31.5652 34.2784L31.4613 34.3691L31.3562 34.4588L31.2503 34.5475L31.1433 34.6353L31.0354 34.7219L30.9264 34.8076L30.8165 34.8923L30.7057 34.976L30.5939 35.0586L30.4812 35.1403L30.3677 35.2209L30.2532 35.3003L30.1378 35.3787L30.0214 35.4561L29.9042 35.5323L29.7862 35.6074L29.6674 35.6815L29.5476 35.7543L29.4272 35.8261L29.3057 35.8967L29.1836 35.9661L29.0606 36.0345L28.9369 36.1017L28.8124 36.1677L28.6871 36.2325L28.561 36.296L28.4343 36.3584L28.3068 36.4197L28.1786 36.4796L28.0496 36.5384L27.9201 36.5959L27.7898 36.6522L27.6588 36.7072L27.5272 36.761L27.395 36.8136L27.2621 36.8649L27.1287 36.9149L26.9946 36.9636L26.86 37.011L26.7247 37.0571L26.5889 37.102L26.4525 37.1455L26.3157 37.1877L26.1783 37.2286L26.0404 37.2681L25.902 37.3064L25.7631 37.3432L25.6237 37.3788L25.4839 37.413L25.3436 37.4459L25.2028 37.4773L25.0618 37.5075L24.9202 37.5362L24.7783 37.5636L24.6361 37.5896L24.4934 37.6143L24.3504 37.6375L24.2072 37.6593L24.0636 37.6797L23.9196 37.6988L23.7754 37.7165L23.6309 37.7326L23.4862 37.7475L23.3412 37.7609L23.196 37.7729L23.0506 37.7835L22.9049 37.7926L22.7591 37.8003L22.6131 37.8066L22.4669 37.8114L22.3206 37.8148L22.1742 37.8168L22.0276 37.8173L21.8809 37.8165L21.7343 37.814L21.5875 37.8103L21.4406 37.805L21.2938 37.7983L21.1468 37.7902L21 37.7806L20.853 37.7696L20.7061 37.7571L20.5593 37.7431L20.4124 37.7277L20.2657 37.7109L20.1191 37.6926L19.9724 37.6728L19.826 37.6516L19.6797 37.6289L19.5335 37.6048L19.3875 37.5792L19.2416 37.5522L19.096 37.5237L18.9505 37.4937L18.8052 37.4624L18.6603 37.4296L18.5155 37.3953L18.371 37.3595L18.2267 37.3223L18.0828 37.2837L17.9391 37.2437L17.7959 37.2022L17.6529 37.1593L17.5102 37.115L17.368 37.0691L17.2262 37.0219L17.0846 36.9733L16.9436 36.9233L16.803 36.8718L16.6628 36.8189L16.5231 36.7645L16.3838 36.7089L16.245 36.6517L16.1067 36.5931L15.969 36.5333L15.8318 36.4719L15.6951 36.4092L15.559 36.3452L15.4235 36.2798L15.2885 36.2129L15.1541 36.1447L15.0205 36.0752L14.8874 36.0042L14.7549 35.9319L14.6231 35.8584L14.492 35.7833L14.3616 35.7071L14.2319 35.6294L14.1028 35.5505L13.9746 35.4703L13.8471 35.3887L13.7204 35.3058L13.5944 35.2216L13.4692 35.1361L13.3448 35.0494L13.2213 34.9614L13.0985 34.8721L12.9767 34.7816L12.8556 34.6897L12.7354 34.5967L12.6162 34.5024L12.4978 34.4068L12.3804 34.3101L12.2638 34.2121L12.1481 34.113L12.0335 34.0126L11.9198 33.911L11.807 33.8083L11.6954 33.7044L11.5846 33.5994L11.4748 33.4931L11.3662 33.3858L11.2586 33.2773L11.152 33.1676L11.0464 33.057L10.9419 32.9451L10.8386 32.8323L10.7363 32.7182L10.6351 32.6031L10.5351 32.487L10.4361 32.3698L10.3384 32.2516L10.2417 32.1322L10.1464 32.012L10.0521 31.8907L9.95903 31.7683L9.86718 31.645L9.77643 31.5208L9.687 31.3955L9.59889 31.2694L9.51188 31.1422L9.42619 31.0142L9.34178 30.8852L9.25863 30.7553L9.17676 30.6246L9.09619 30.4929L9.01693 30.3603L8.93898 30.227L8.86236 30.0927L8.78706 29.9577L8.71312 29.8218L8.64053 29.6852L8.56929 29.5477L8.49943 29.4094L8.43096 29.2703L8.36387 29.1305L8.29818 28.9901L8.23389 28.8487L8.17102 28.7068L8.10957 28.5641L8.04955 28.4207L7.99097 28.2767L7.93385 28.1321L7.87816 27.9866L7.82394 27.8407L7.77119 27.6942L7.71992 27.5469L7.67013 27.3991L7.62183 27.2507L7.57502 27.1018L7.52973 26.9524L7.48594 26.8024L7.44366 26.6519L7.40291 26.5009L7.36369 26.3493L7.32601 26.1974L7.28985 26.0449L7.25525 25.892L7.2222 25.7387L7.19071 25.585L7.16078 25.4309L7.13241 25.2764L7.10561 25.1215L7.0804 24.9663L7.05676 24.8107L7.0347 24.6549L7.01424 24.4987L6.99538 24.3421L6.97811 24.1854L6.96243 24.0284L6.94837 23.8711L6.93591 23.7136L6.92507 23.5559L6.91583 23.398L6.90822 23.2399L6.90222 23.0817L6.89785 22.9233L6.8951 22.7648L6.89398 22.6061L6.8945 22.4474L6.89663 22.2885L6.90042 22.1297L6.90582 21.9707L6.91287 21.8117L6.92156 21.6527L6.93188 21.4937L6.94384 21.3347L6.95744 21.1757L6.97269 21.0168L6.98958 20.8579L7.00811 20.6991L7.02828 20.5404L7.05009 20.3818L7.07355 20.2233L7.09865 20.065L7.12538 19.9068L7.15376 19.7489L7.18378 19.591L7.21544 19.4334L7.24872 19.2761L7.28366 19.1189L7.32022 18.962L7.35841 18.8054L7.39823 18.6491L7.43969 18.4931L7.48277 18.3373L7.52747 18.182L7.5738 18.027L7.62174 17.8724L7.67131 17.718L7.72248 17.5643L7.77526 17.4108L7.82965 17.2578L7.88564 17.1052L7.94323 16.9531L8.00241 16.8015L8.06318 16.6504L8.12554 16.4998L8.18949 16.3497L8.255 16.2001L8.3221 16.0512L8.39075 15.9028L8.46098 15.755L8.53275 15.6078L8.60609 15.4613L8.68096 15.3153L8.75738 15.1701L8.83533 15.0255L8.91481 14.8816L8.99582 14.7384L9.07833 14.5958L9.16236 14.4541L9.24789 14.3131L9.33491 14.1728L9.42344 14.0334L9.51342 13.8947L9.60494 13.7568L9.69778 13.6198L9.79227 13.4836L9.88808 13.3482L9.98532 13.2136L10.0841 13.0801L10.1842 12.9473L10.2858 12.8156L10.3888 12.6847L10.4932 12.5547L10.5989 12.4258L10.706 12.2978L10.8146 12.1707L10.9245 12.0447L11.0357 11.9197L11.1484 11.7957L11.2622 11.6728L11.3775 11.5509L11.4941 11.43L11.6119 11.3103L11.731 11.1916L11.8515 11.074L11.9732 10.9577L12.0962 10.8423L12.2204 10.7282L12.3459 10.6151L12.4726 10.5034L12.6005 10.3927L12.7296 10.2832L12.86 10.175L12.9914 10.068L13.1241 9.96215L13.2579 9.85765L13.3929 9.75436L13.529 9.65239L13.6663 9.55163L13.8045 9.45219L13.9439 9.35407L14.0845 9.25727L14.226 9.16179L14.3686 9.06774L14.5124 8.9749L14.657 8.88349L14.8028 8.79344L14.9495 8.70477L15.0972 8.6175L15.2459 8.53163L15.3956 8.44717L15.5462 8.36414L15.6976 8.28255L15.8501 8.2024L16.0034 8.12371L16.1576 8.04648L16.3127 7.97072L16.4687 7.89645L16.6256 7.82367L16.7832 7.75239L16.9417 7.68262L17.101 7.61438L17.2611 7.54766L17.4219 7.48248L17.5834 7.41884L17.7457 7.35676L17.9087 7.29623L18.0725 7.23729L18.237 7.17991L18.4021 7.12412L18.5679 7.06992L18.7342 7.01733L18.9013 6.96633L19.0689 6.91695L19.2372 6.8692L19.4059 6.82307L19.5753 6.77857L19.7453 6.73572L19.9158 6.69451L20.0867 6.65497L20.2582 6.61706L20.4302 6.58083L20.6025 6.54627L20.7754 6.51339L20.9487 6.48218L21.1224 6.45265L21.2965 6.42483L21.471 6.39869L21.6458 6.37426L21.8209 6.35152L21.8862 6.34369ZM21.9601 12.5797L21.9098 8.32908L21.7662 8.34914L21.6119 8.37228L21.4574 8.39695L21.304 8.42303L21.1503 8.45071L20.9974 8.4798L20.8449 8.51039L20.6928 8.54241L20.5411 8.57595L20.3898 8.61098L20.2389 8.64744L20.0886 8.68535L19.9385 8.72477L19.7942 8.76414L19.6406 8.80781L19.4922 8.85148L19.3445 8.89658L19.1975 8.943L19.0509 8.99096L18.9048 9.04035L18.7594 9.09106L18.6147 9.14309L18.4706 9.19666L18.3272 9.25144L18.1843 9.30776L18.0425 9.36529L17.9007 9.42436L17.76 9.48464L17.62 9.54624L17.4809 9.60916L17.3422 9.67351L17.2043 9.73918L17.0676 9.80595L16.9311 9.87426L16.796 9.94367L16.6611 10.0146L16.5276 10.0865L16.3943 10.16L16.2623 10.2344L16.1311 10.3102L16.0007 10.3873L15.8712 10.4655L15.7424 10.5452L15.6149 10.6257L15.488 10.7076L15.3622 10.7907L15.2374 10.8748L15.1134 10.9603L14.9902 11.047L14.8684 11.1344L14.7473 11.2234L14.6272 11.3134L14.5082 11.4045L14.3903 11.4965L14.2731 11.5899L14.1573 11.6842L14.0425 11.7796L13.9285 11.8763L13.816 11.9736L13.7042 12.0723L13.5935 12.1719L13.4841 12.2725L13.3759 12.374L13.2684 12.4767L13.1625 12.5801L13.0575 12.6847L12.9536 12.7902L12.8509 12.8966L12.7494 13.0041L12.6491 13.1123L12.55 13.2215L12.452 13.3316L12.3551 13.4427L12.2598 13.5543L12.1654 13.6671L12.0722 13.7807L11.9804 13.895L11.8899 14.01L11.8003 14.1262L11.7122 14.2429L11.6253 14.3605L11.5397 14.4789L11.4554 14.598L11.3724 14.7177L11.2907 14.8382L11.2102 14.9596L11.131 15.0816L11.0532 15.2041L10.9768 15.3274L10.9015 15.4516L10.8276 15.5761L10.7551 15.7014L10.6838 15.8274L10.6141 15.9536L10.5456 16.0808L10.4782 16.2086L10.4126 16.3366L10.3481 16.4656L10.2851 16.5949L10.2234 16.7246L10.1631 16.8551L10.1041 16.9859L10.0466 17.1172L9.99038 17.249L9.93571 17.3812L9.88236 17.5139L9.83033 17.6471L9.77973 17.7806L9.73067 17.9145L9.68282 18.0489L9.63662 18.1834L9.59163 18.3185L9.54818 18.4539L9.50605 18.5897L9.46546 18.7256L9.42619 18.8619L9.38846 18.9984L9.35206 19.1354L9.31713 19.2724L9.28363 19.4098L9.25158 19.5474L9.22094 19.6852L9.19174 19.8232L9.16401 19.9614L9.13768 20.0996L9.1128 20.2382L9.08938 20.3768L9.06737 20.5157L9.04684 20.6544L9.02771 20.7934L9.01004 20.9324L8.9938 21.0716L8.97901 21.2107L8.96566 21.35L8.95374 21.4893L8.94327 21.6284L8.93423 21.7678L8.92662 21.9071L8.92045 22.0462L8.91572 22.1854L8.9124 22.3244L8.91053 22.4634L8.91008 22.6025L8.91106 22.7413L8.91347 22.88L8.9173 23.0186L8.92254 23.157L8.9292 23.2954L8.93728 23.4335L8.94676 23.5713L8.95766 23.7092L8.96996 23.8467L8.98366 23.984L8.99877 24.121L9.01526 24.2579L9.03315 24.3945L9.05242 24.5307L9.07309 24.6667L9.09513 24.8023L9.11854 24.9377L9.14334 25.0727L9.16949 25.2073L9.19701 25.3417L9.22587 25.4756L9.25611 25.6092L9.28766 25.7422L9.32059 25.875L9.35485 26.0073L9.39044 26.1392L9.42729 26.2705L9.46557 26.4015L9.50506 26.532L9.54598 26.662L9.58811 26.7916L9.63156 26.9205L9.67633 27.0489L9.72231 27.1768L9.76961 27.3042L9.81823 27.431L9.86806 27.5572L9.9191 27.6828L9.97146 27.8079L10.025 27.9323L10.0799 28.0561L10.1359 28.1793L10.1932 28.3017L10.2517 28.4236L10.3114 28.5448L10.3723 28.6652L10.4343 28.7851L10.4976 28.9043L10.5621 29.0226L10.6276 29.1403L10.6944 29.2573L10.7623 29.3734L10.8313 29.4888L10.9015 29.6035L10.9728 29.7174L11.0452 29.8305L11.1188 29.9429L11.1932 30.0542L11.269 30.165L11.3457 30.2747L11.4236 30.3838L11.5024 30.4919L11.5824 30.5991L11.6634 30.7055L11.7454 30.8111L11.8284 30.9157L11.9124 31.0194L11.9974 31.1223L12.0835 31.2243L12.1705 31.3251L12.2585 31.4254L12.3474 31.5244L12.4372 31.6226L12.528 31.7197L12.6197 31.816L12.7123 31.9112L12.8059 32.0055L12.9003 32.0988L12.9957 32.1911L13.0919 32.2824L13.1889 32.3726L13.2869 32.4619L13.3855 32.55L13.4851 32.6371L13.5855 32.7232L13.6867 32.8083L13.7887 32.8923L13.8914 32.9751L13.9949 33.057L14.0992 33.1377L14.2043 33.2175L14.3101 33.296L14.4165 33.3735L14.5236 33.4498L14.6315 33.525L14.7401 33.5992L14.8494 33.6722L14.9593 33.744L15.0699 33.8148L15.1811 33.8844L15.2928 33.9528L15.4052 34.0201L15.5183 34.0862L15.6318 34.1512L15.7461 34.215L15.8608 34.2775L15.9761 34.339L16.092 34.3993L16.2082 34.4583L16.3252 34.5162L16.4427 34.5729L16.5605 34.6284L16.6787 34.6827L16.7976 34.7358L16.9168 34.7876L17.0364 34.8382L17.1566 34.8877L17.2771 34.9359L17.3979 34.9829L17.5192 35.0286L17.6409 35.0732L17.7629 35.1165L17.8852 35.1585L18.008 35.1995L18.1309 35.2389L18.2542 35.2773L18.3779 35.3144L18.5017 35.3503L18.6258 35.3849L18.7502 35.4182L18.8749 35.4505L18.9997 35.4813L19.1248 35.5109L19.2501 35.5392L19.3756 35.5664L19.5012 35.5923L19.6269 35.6168L19.753 35.6401L19.8789 35.6622L20.0052 35.6831L20.1315 35.7026L20.2579 35.721L20.3844 35.738L20.5109 35.7539L20.6375 35.7684L20.7641 35.7817L20.8908 35.7937L21.0176 35.8045L21.1443 35.8139L21.271 35.8223L21.3976 35.8292L21.5242 35.835L21.6509 35.8395L21.7774 35.8428L21.9038 35.8448L22.0302 35.8456L22.1565 35.8451L22.2827 35.8434L22.4087 35.8405L22.5346 35.8363L22.6604 35.831L22.7859 35.8243L22.9113 35.8164L23.0365 35.8073L23.1616 35.797L23.2863 35.7854L23.4109 35.7727L23.5353 35.7587L23.6594 35.7435L23.7833 35.7271L23.9068 35.7096L24.0301 35.6908L24.1531 35.6708L24.2756 35.6497L24.3981 35.6272L24.5201 35.6037L24.6417 35.5791L24.7632 35.5531L24.8839 35.526L25.0045 35.4979L25.1246 35.4684L25.2444 35.4379L25.3638 35.4063L25.4827 35.3734L25.6011 35.3394L25.7192 35.3043L25.8367 35.2681L25.9537 35.2307L26.0704 35.1922L26.1865 35.1526L26.3021 35.1119L26.4171 35.0701L26.5316 35.0272L26.6456 34.9832L26.759 34.9381L26.872 34.8919L26.9843 34.8447L27.0959 34.7964L27.2071 34.7471L27.3176 34.6968L27.4276 34.6453L27.5369 34.5928L27.6454 34.5395L27.7536 34.4848L27.8609 34.4293L27.9677 34.3727L28.0735 34.3153L28.1789 34.2568L28.2836 34.1972L28.3874 34.1367L28.4907 34.0753L28.5933 34.0129L28.6949 33.9495L28.7961 33.8852L28.8962 33.82L28.9957 33.7538L29.0946 33.6866L29.1925 33.6186L29.2896 33.5499L29.3861 33.4799L29.4816 33.4094L29.5764 33.3378L29.6705 33.2653L29.7633 33.1922L29.8558 33.1179L29.9474 33.0429L30.0377 32.9672L30.1276 32.8903L30.2164 32.813L30.3043 32.7349L30.3916 32.6556L30.4777 32.576L30.563 32.4953L30.6475 32.4139L30.7309 32.3319L30.8135 32.2489L30.8952 32.1653L30.976 32.0809L31.0556 31.9959L31.1345 31.9101L31.2125 31.8237L31.2892 31.7367L31.3654 31.6487L31.4403 31.5602L31.5142 31.4711L31.5873 31.3811L31.6593 31.2909L31.7303 31.1997L31.8004 31.1081L31.8695 31.0157L31.9375 30.9229L32.0044 30.8296L32.0705 30.7353L32.1354 30.6408L32.1993 30.5457L32.2623 30.4499L32.3239 30.3538L32.3848 30.257L32.4446 30.1597L32.5033 30.062L32.5608 29.9638L32.6176 29.8649L32.6729 29.766L32.7275 29.6661L32.7808 29.5661L32.833 29.4657L32.8844 29.3645L32.9343 29.2635L32.9835 29.1614L33.0312 29.0597L33.0783 28.9568L33.1238 28.8542L33.1686 28.7507L33.2122 28.6473L33.2545 28.5435L33.2959 28.4392L33.3361 28.3346L33.3751 28.23L33.4132 28.1247L33.45 28.0193L33.4857 27.9137L33.5204 27.8078L33.5539 27.7015L33.5864 27.5952L33.6176 27.4887L33.6478 27.3818L33.6767 27.2748L33.7046 27.1676L33.7314 27.0602L33.757 26.9529L33.7815 26.8449L33.8048 26.7372L33.8272 26.6292L33.8482 26.5213L33.8682 26.4132L33.887 26.3046L33.9047 26.1965L33.9213 26.088L33.9367 25.9795L33.951 25.8711L33.9642 25.7626L33.9763 25.6537L33.9872 25.5455L33.9971 25.4365L34.0058 25.3279L34.0133 25.2196L34.0198 25.1109L34.0251 25.0025L34.0292 24.8941L34.0323 24.7854L34.0342 24.6774L34.0351 24.5689L34.0347 24.4608L34.0334 24.3527L34.0309 24.245L34.0273 24.1371L34.0225 24.0294L34.0167 23.9221L34.0098 23.8146L34.0017 23.7073L33.9927 23.6006L33.9825 23.4936L33.9712 23.3872L33.9587 23.2806L33.9453 23.1746L33.9308 23.0687L33.9152 22.9628L33.8984 22.8574L33.8807 22.7524L33.8619 22.6476L33.842 22.5431L33.821 22.4385L33.799 22.3346L33.776 22.2311L33.7519 22.1277L33.7267 22.0245L33.7007 21.9222L33.6734 21.8196L33.6452 21.7179L33.616 21.6162L33.5857 21.5152L33.5545 21.4144L33.5221 21.3139L33.4889 21.2142L33.4547 21.1147L33.4193 21.0154L33.3832 20.9169L33.3459 20.8187L33.3077 20.7211L33.2686 20.6238L33.2284 20.5269L33.1874 20.4309L33.1453 20.3349L33.1024 20.2398L33.0585 20.1452L33.0136 20.0508L32.9677 19.957L32.9212 19.864L32.8735 19.7713L32.8251 19.6794L32.7757 19.5881L32.7253 19.497L32.6743 19.4069L32.6221 19.3171L32.5692 19.2281L32.5153 19.1395L32.4609 19.0518L32.4052 18.9643L32.349 18.8779L32.2918 18.792L32.2338 18.7067L32.1749 18.6219L32.1152 18.538L32.055 18.4548L31.9936 18.372L31.9316 18.2901L31.8687 18.2088L31.8054 18.1284L31.7409 18.0485L31.6758 17.9694L31.6099 17.891L31.5433 17.8132L31.4761 17.7364L31.4079 17.6601L31.3393 17.5847L31.2698 17.5099L31.1998 17.4362L31.1288 17.3628L31.0574 17.2906L30.985 17.2187L30.9122 17.148L30.8388 17.078L30.7647 17.0087L30.6897 16.9402L30.6143 16.8727L30.5383 16.8059L30.4614 16.7397L30.3845 16.6748L30.3065 16.6102L30.2281 16.5467L30.1491 16.4842L30.0695 16.4221L29.9894 16.3612L29.909 16.3012L29.8276 16.2418L29.7456 16.1832L29.6637 16.1259L29.5806 16.069L29.4977 16.0135L29.414 15.9585L29.3297 15.9044L29.2449 15.8511L29.16 15.799L29.0742 15.7475L28.9883 15.6971L28.9016 15.6474L28.815 15.5989L28.7277 15.5511L28.6399 15.5042L28.5518 15.4582L28.4635 15.4133L28.3746 15.3691L28.2853 15.3259L28.1958 15.2836L28.1062 15.2424L28.0155 15.2018L27.9253 15.1624L27.8345 15.1239L27.7432 15.0862L27.6518 15.0495L27.5602 15.0139L27.4683 14.9791L27.3758 14.9452L27.2835 14.9124L27.1906 14.8804L27.0976 14.8493L27.0046 14.8193L26.9112 14.7903L26.8179 14.7621L26.7237 14.7348L26.6299 14.7087L26.5358 14.6834L26.4415 14.659L26.3472 14.6356L26.2523 14.6132L26.1577 14.5917L26.0631 14.5713L25.9681 14.5517L25.8728 14.533L25.7781 14.5155L25.6828 14.4988L25.5876 14.483L25.492 14.4682L25.397 14.4544L25.3012 14.4415L25.206 14.4297L25.1105 14.4187L25.0151 14.4087L24.9197 14.3997L24.8241 14.3915L24.729 14.3844L24.6333 14.3782L24.538 14.3729L24.443 14.3686L24.3473 14.3652L24.2523 14.3628L24.1573 14.3614L24.0624 14.3608L23.9975 14.3611L24.0466 18.514L24.076 18.5141L24.1306 18.5149L24.1852 18.5162L24.24 18.5179L24.2948 18.5205L24.3497 18.5235L24.4046 18.527L24.4596 18.5312L24.5146 18.5359L24.5697 18.5412L24.6248 18.547L24.6799 18.5534L24.7351 18.5604L24.7902 18.568L24.8454 18.5761L24.9007 18.5849L24.9559 18.5943L25.011 18.6042L25.0662 18.6148L25.1213 18.6258L25.1764 18.6375L25.2315 18.6497L25.2867 18.6626L25.3415 18.676L25.3965 18.69L25.4514 18.7046L25.5062 18.7198L25.561 18.7355L25.6157 18.7519L25.6702 18.7689L25.7247 18.7865L25.7791 18.8046L25.8334 18.8233L25.8876 18.8426L25.9416 18.8625L25.9955 18.8829L26.0493 18.9039L26.103 18.9256L26.1564 18.9478L26.2098 18.9706L26.263 18.994L26.316 19.018L26.3689 19.0425L26.4216 19.0677L26.4741 19.0934L26.5265 19.1197L26.5785 19.1466L26.6304 19.174L26.6821 19.202L26.7336 19.2306L26.7849 19.2598L26.8359 19.2895L26.8866 19.3197L26.9372 19.3506L26.9875 19.3821L27.0375 19.4141L27.0872 19.4466L27.1367 19.4797L27.186 19.5135L27.235 19.5477L27.2836 19.5824L27.332 19.6177L27.3801 19.6536L27.4278 19.69L27.4752 19.727L27.5224 19.7645L27.5692 19.8025L27.6156 19.841L27.6618 19.8802L27.7075 19.9198L27.753 19.9599L27.7981 20.0006L27.8427 20.0419L27.8871 20.0836L27.9309 20.1258L27.9746 20.1686L28.0177 20.2118L28.0605 20.2556L28.103 20.2998L28.1449 20.3446L28.1865 20.3899L28.2276 20.4357L28.2684 20.4819L28.3087 20.5286L28.3485 20.5758L28.388 20.6235L28.4269 20.6716L28.4654 20.7203L28.5035 20.7693L28.5411 20.8189L28.5783 20.8689L28.6149 20.9194L28.651 20.9702L28.6868 21.0216L28.722 21.0734L28.7566 21.1256L28.7908 21.1782L28.8246 21.2313L28.8577 21.2848L28.8904 21.3387L28.9225 21.393L28.9541 21.4477L28.9852 21.5028L29.0157 21.5583L29.0457 21.6142L29.0752 21.6706L29.104 21.7272L29.1324 21.7842L29.1601 21.8416L29.1873 21.8995L29.2139 21.9575L29.2399 22.0161L29.2655 22.0749L29.2903 22.1341L29.3146 22.1936L29.3383 22.2534L29.3614 22.3136L29.3839 22.3741L29.4058 22.4349L29.4271 22.4961L29.4477 22.5575L29.4678 22.6192L29.4871 22.6812L29.5059 22.7435L29.5241 22.8061L29.5416 22.869L29.5585 22.932L29.5748 22.9954L29.5903 23.0591L29.6053 23.123L29.6196 23.187L29.6332 23.2515L29.6462 23.316L29.6584 23.3807L29.67 23.4458L29.681 23.5111L29.6914 23.5764L29.701 23.6421L29.7099 23.7079L29.7181 23.7739L29.7257 23.8401L29.7326 23.9064L29.7388 23.9729L29.7443 24.0395L29.7491 24.1064L29.7532 24.1733L29.7566 24.2404L29.7593 24.3076L29.7613 24.3749L29.7626 24.4423L29.7632 24.5099L29.763 24.5774L29.7622 24.6452L29.7607 24.713L29.7584 24.7809L29.7554 24.8489L29.7517 24.9169L29.7473 24.985L29.7421 25.053L29.7362 25.1213L29.7296 25.1895L29.7223 25.2577L29.7142 25.3259L29.7054 25.3942L29.6959 25.4625L29.6857 25.5307L29.6747 25.5989L29.6629 25.6671L29.6505 25.7353L29.6373 25.8035L29.6234 25.8716L29.6087 25.9396L29.5933 26.0076L29.5772 26.0756L29.5603 26.1435L29.5427 26.2114L29.5244 26.279L29.5053 26.3467L29.4855 26.4141L29.4649 26.4815L29.4437 26.5488L29.4217 26.6159L29.3989 26.683L29.3755 26.7499L29.3512 26.8166L29.3262 26.8832L29.3006 26.9496L29.2742 27.0159L29.247 27.0819L29.2192 27.1478L29.1906 27.2135L29.1612 27.279L29.1312 27.3442L29.1004 27.4093L29.0688 27.4742L29.0367 27.5387L29.0037 27.6031L28.97 27.6672L28.9356 27.731L28.9005 27.7946L28.8647 27.8579L28.8282 27.921L28.7909 27.9838L28.7531 28.0462L28.7144 28.1084L28.6751 28.1702L28.6351 28.2317L28.5942 28.293L28.5529 28.3538L28.5108 28.4144L28.468 28.4746L28.4244 28.5344L28.3803 28.5939L28.3354 28.653L28.2899 28.7118L28.2437 28.7702L28.1968 28.8281L28.1493 28.8857L28.1011 28.9429L28.0523 28.9996L28.0027 29.0559L27.9525 29.1118L27.9017 29.1674L27.8502 29.2224L27.7982 29.2769L27.7454 29.3312L27.692 29.3848L27.638 29.438L27.5835 29.4908L27.5281 29.543L27.4722 29.5947L27.4158 29.646L27.3587 29.6968L27.3011 29.7471L27.2428 29.7968L27.1839 29.846L27.1244 29.8947L27.0644 29.9429L27.0038 29.9904L26.9426 30.0375L26.8809 30.084L26.8185 30.13L26.7557 30.1753L26.6922 30.2201L26.6283 30.2644L26.5638 30.308L26.4987 30.3511L26.4332 30.3934L26.3671 30.4354L26.3004 30.4766L26.2333 30.5172L26.1657 30.5571L26.0976 30.5965L26.0289 30.6352L25.9597 30.6733L25.8902 30.7108L25.8202 30.7475L25.7496 30.7837L25.6786 30.8191L25.6072 30.854L25.5353 30.8881L25.4629 30.9216L25.3902 30.9543L25.3169 30.9863L25.2433 31.0178L25.1693 31.0485L25.0948 31.0784L25.0199 31.1077L24.9447 31.1363L24.869 31.1641L24.793 31.1913L24.7166 31.2177L24.6399 31.2433L24.5627 31.2683L24.4853 31.2924L24.4075 31.3158L24.3293 31.3386L24.2509 31.3605L24.1721 31.3817L24.093 31.402L24.0136 31.4217L23.9339 31.4405L23.8539 31.4587L23.7736 31.476L23.6931 31.4926L23.6122 31.5083L23.5312 31.5232L23.4499 31.5374L23.3683 31.5509L23.2865 31.5634L23.2045 31.5752L23.1223 31.5862L23.0398 31.5964L22.9572 31.6058L22.8744 31.6142L22.7913 31.622L22.7081 31.6289L22.6248 31.635L22.5412 31.6402L22.4576 31.6447L22.3737 31.6483L22.2898 31.6511L22.2057 31.6529L22.1215 31.654L22.0373 31.6544L21.9529 31.6538L21.8684 31.6524L21.7838 31.6501L21.6992 31.647L21.6145 31.643L21.5297 31.6382L21.4449 31.6326L21.3601 31.6261L21.2753 31.6187L21.1904 31.6105L21.1056 31.6015L21.0206 31.5915L20.9358 31.5807L20.8509 31.569L20.7661 31.5566L20.6813 31.5432L20.5966 31.529L20.5119 31.5139L20.4273 31.498L20.3427 31.4812L20.2582 31.4635L20.1739 31.445L20.0896 31.4256L20.0054 31.4053L19.9213 31.3843L19.8374 31.3623L19.7537 31.3394L19.6699 31.3158L19.5866 31.2913L19.5032 31.2659L19.42 31.2396L19.3371 31.2125L19.2543 31.1846L19.1718 31.1557L19.0894 31.126L19.0072 31.0955L18.9254 31.0641L18.8436 31.0319L18.7622 30.9988L18.681 30.9649L18.6002 30.9301L18.5196 30.8945L18.4392 30.8581L18.3592 30.8208L18.2793 30.7826L18.1999 30.7437L18.1208 30.7039L18.0421 30.6633L17.9636 30.6218L17.8855 30.5796L17.8078 30.5364L17.7304 30.4926L17.6533 30.4478L17.5768 30.4022L17.5005 30.3559L17.4247 30.3087L17.3493 30.2608L17.2743 30.2121L17.1997 30.1624L17.1255 30.1121L17.0519 30.0609L16.9787 30.009L16.9059 29.9563L16.8336 29.9027L16.7618 29.8485L16.6905 29.7935L16.6196 29.7376L16.5494 29.6811L16.4795 29.6238L16.4102 29.5657L16.3415 29.5068L16.2733 29.4472L16.2056 29.3869L16.1385 29.3259L16.072 29.2641L16.006 29.2016L15.9406 29.1383L15.8757 29.0744L15.8116 29.0098L15.748 28.9444L15.685 28.8783L15.6226 28.8116L15.5609 28.7441L15.4998 28.676L15.4393 28.6073L15.3796 28.5377L15.3204 28.4677L15.2619 28.3968L15.2042 28.3253L15.1471 28.2533L15.0906 28.1806L15.0349 28.1072L14.9799 28.0332L14.9256 27.9586L14.8721 27.8833L14.8192 27.8074L14.767 27.731L14.7157 27.654L14.6651 27.5763L14.6152 27.4981L14.5661 27.4194L14.5178 27.3401L14.4701 27.2601L14.4234 27.1797L14.3774 27.0986L14.3322 27.0171L14.2878 26.935L14.2442 26.8524L14.2014 26.7693L14.1594 26.6857L14.1182 26.6016L14.078 26.5169L14.0385 26.4319L13.9999 26.3463L13.9622 26.2603L13.9252 26.1737L13.8891 26.0868L13.8539 25.9994L13.8196 25.9116L13.7862 25.8233L13.7537 25.7346L13.722 25.6455L13.6912 25.5561L13.6613 25.4662L13.6324 25.3759L13.6043 25.2853L13.5772 25.1943L13.5509 25.1029L13.5256 25.0111L13.5013 24.9191L13.4777 24.8267L13.4553 24.7339L13.4337 24.641L13.413 24.5476L13.3933 24.454L13.3746 24.3601L13.3568 24.2659L13.34 24.1714L13.3242 24.0767L13.3093 23.9818L13.2953 23.8865L13.2824 23.7911L13.2705 23.6954L13.2595 23.5996L13.2495 23.5035L13.2404 23.4072L13.2324 23.3108L13.2254 23.2142L13.2193 23.1174L13.2143 23.0205L13.2102 22.9235L13.2071 22.8262L13.2051 22.7289L13.2041 22.6315L13.204 22.5339L13.205 22.4363L13.2071 22.3386L13.2101 22.2408L13.2142 22.1429L13.2192 22.045L13.2253 21.9471L13.2323 21.8491L13.2404 21.7511L13.2496 21.6531L13.2597 21.5551L13.2709 21.457L13.2831 21.359L13.2963 21.2611L13.3106 21.1632L13.3259 21.0653L13.3423 20.9675L13.3596 20.8698L13.3779 20.7721L13.3974 20.6745L13.4179 20.577L13.4393 20.4797L13.4618 20.3824L13.4853 20.2854L13.5098 20.1884L13.5355 20.0916L13.5621 19.995L13.5897 19.8986L13.6183 19.8022L13.648 19.7062L13.6787 19.6102L13.7104 19.5145L13.7431 19.4192L13.7769 19.3239L13.8117 19.229L13.8474 19.1343L13.8843 19.0399L13.9221 18.9457L13.9609 18.8518L14.0008 18.7583L14.0416 18.665L14.0835 18.5721L14.1263 18.4794L14.1702 18.3872L14.2149 18.2953L14.2608 18.2037L14.3076 18.1125L14.3554 18.0217L14.4041 17.9313L14.454 17.8413L14.5047 17.7517L14.5564 17.6625L14.6091 17.5738L14.6627 17.4855L14.7173 17.3976L14.773 17.3103L14.8295 17.2232L14.8869 17.1368L14.9453 17.0509L15.0047 16.9654L15.065 16.8805L15.1263 16.7961L15.1884 16.7122L15.2515 16.6288L15.3155 16.5461L15.3804 16.4638L15.4463 16.3822L15.513 16.301L15.5806 16.2206L15.6491 16.1406L15.7185 16.0613L15.7888 15.9827L15.86 15.9046L15.932 15.8272L16.005 15.7505L16.0788 15.6743L16.1534 15.5989L16.2288 15.5241L16.3052 15.4499L16.3823 15.3766L16.4603 15.3039L16.539 15.2318L16.6185 15.1605L16.699 15.0899L16.7802 15.0202L16.8622 14.951L16.945 14.8827L17.0285 14.8151L17.1129 14.7483L17.1979 14.6823L17.2838 14.617L17.3704 14.5526L17.4577 14.4889L17.5458 14.4261L17.6346 14.364L17.7242 14.3027L17.8145 14.2424L17.9053 14.1829L17.997 14.1242L18.0894 14.0664L18.1823 14.0094L18.276 13.9533L18.3703 13.8981L18.4653 13.8437L18.5609 13.7903L18.6572 13.7377L18.7541 13.6861L18.8515 13.6354L18.9497 13.5856L19.0483 13.5367L19.1477 13.4888L19.2475 13.4418L19.348 13.3957L19.449 13.3506L19.5505 13.3065L19.6527 13.2633L19.7553 13.221L19.8584 13.1799L19.9621 13.1396L20.0663 13.1003L20.1709 13.0621L20.276 13.0249L20.3818 12.9886L20.4878 12.9534L20.5944 12.9192L20.7013 12.886L20.8088 12.8538L20.9166 12.8227L21.0248 12.7927L21.1335 12.7636L21.2425 12.7356L21.352 12.7086L21.4617 12.6828L21.572 12.658L21.6824 12.6343L21.7933 12.6116L21.9044 12.5901L21.9601 12.5797ZM23.3262 20.566L22.0584 20.869L21.9839 14.5885L21.9242 14.602L21.8342 14.6232L21.7443 14.6453L21.6551 14.6682L21.566 14.6919L21.4775 14.7166L21.3889 14.7422L21.3012 14.7684L21.2134 14.7957L21.1266 14.8235L21.0396 14.8524L20.9531 14.8821L20.8671 14.9126L20.7814 14.9438L20.6965 14.9758L20.6117 15.0088L20.5273 15.0425L20.4435 15.0769L20.3598 15.1123L20.2771 15.1482L20.1945 15.1852L20.1127 15.2227L20.031 15.2612L19.95 15.3002L19.8693 15.3402L19.7894 15.3808L19.7099 15.4221L19.6309 15.4642L19.5525 15.507L19.4745 15.5506L19.397 15.5949L19.3205 15.6398L19.2438 15.6857L19.1681 15.732L19.0931 15.7791L19.0185 15.8268L18.9444 15.8753L18.871 15.9245L18.7982 15.9743L18.7259 16.0247L18.6544 16.0757L18.5833 16.1275L18.5129 16.18L18.4431 16.233L18.3739 16.2867L18.3055 16.3408L18.2377 16.3957L18.1704 16.4513L18.1038 16.5075L18.038 16.564L17.9728 16.6213L17.9082 16.6791L17.8443 16.7375L17.781 16.7966L17.7185 16.8561L17.6567 16.916L17.5955 16.9767L17.5351 17.0378L17.4753 17.0995L17.4164 17.1615L17.3579 17.2245L17.3003 17.2875L17.2435 17.3512L17.1872 17.4154L17.1319 17.4799L17.0771 17.5451L17.0233 17.6105L16.97 17.6767L16.9176 17.743L16.8658 17.81L16.8149 17.8774L16.7647 17.9451L16.7152 18.0132L16.6666 18.0817L16.6187 18.1508L16.5715 18.2201L16.5252 18.2899L16.4796 18.3599L16.4348 18.4303L16.3907 18.5012L16.3476 18.5723L16.305 18.644L16.2635 18.7156L16.2225 18.7879L16.1824 18.8604L16.1432 18.9331L16.1047 19.0061L16.0671 19.0795L16.0302 19.1533L15.9942 19.227L15.9589 19.3014L15.9244 19.3757L15.8909 19.4504L15.858 19.5253L15.826 19.6006L15.7949 19.6758L15.7645 19.7515L15.735 19.8273L15.7062 19.9033L15.6784 19.9793L15.6513 20.0558L15.625 20.1323L15.5996 20.209L15.575 20.2858L15.5512 20.3629L15.5282 20.44L15.5062 20.5171L15.4849 20.5945L15.4643 20.6721L15.4447 20.7496L15.4259 20.8273L15.4079 20.9051L15.3907 20.9829L15.3744 21.0609L15.3589 21.1388L15.3442 21.2168L15.3303 21.295L15.3174 21.373L15.3051 21.4511L15.2937 21.5294L15.2831 21.6074L15.2735 21.6857L15.2646 21.7637L15.2564 21.8419L15.2492 21.9203L15.2427 21.9982L15.2371 22.0763L15.2322 22.1544L15.2281 22.2323L15.225 22.3102L15.2225 22.388L15.221 22.4659L15.2201 22.5435L15.2202 22.6211L15.221 22.6985L15.2226 22.7759L15.2251 22.8532L15.2283 22.9303L15.2322 23.0073L15.2371 23.0841L15.2427 23.1607L15.249 23.2373L15.2562 23.3136L15.2641 23.39L15.2728 23.4658L15.2823 23.5418L15.2925 23.6172L15.3036 23.6928L15.3154 23.7679L15.3279 23.8429L15.3412 23.9179L15.3553 23.9923L15.3702 24.0667L15.3857 24.1406L15.4021 24.2145L15.4191 24.288L15.4369 24.3614L15.4554 24.4342L15.4748 24.5071L15.4947 24.5794L15.5154 24.6517L15.5368 24.7234L15.5589 24.795L15.5818 24.8662L15.6053 24.9369L15.6296 25.0076L15.6546 25.0778L15.6802 25.1475L15.7065 25.2172L15.7336 25.2864L15.7613 25.3551L15.7897 25.4235L15.8186 25.4915L15.8484 25.5593L15.8788 25.6266L15.9098 25.6935L15.9415 25.7599L15.9737 25.8259L16.0068 25.8918L16.0403 25.9569L16.0745 26.0217L16.1094 26.0862L16.1449 26.1501L16.181 26.2137L16.2176 26.2768L16.2549 26.3393L16.2928 26.4015L16.3312 26.4633L16.3703 26.5244L16.41 26.5852L16.4501 26.6455L16.4909 26.7055L16.5322 26.7645L16.5741 26.8235L16.6166 26.8818L16.6595 26.9396L16.7031 26.997L16.7471 27.0537L16.7917 27.1099L16.8368 27.1657L16.8824 27.221L16.9284 27.2756L16.9752 27.3298L17.0222 27.3835L17.0698 27.4365L17.1181 27.4891L17.1665 27.5409L17.2155 27.5925L17.265 27.6433L17.3148 27.6936L17.3653 27.7433L17.4162 27.7925L17.4674 27.8411L17.5191 27.8891L17.5713 27.9365L17.6238 27.9833L17.6767 28.0295L17.7301 28.0752L17.7838 28.1203L17.8379 28.1647L17.8925 28.2086L17.9475 28.2519L18.0026 28.2944L18.0582 28.3364L18.1142 28.3779L18.1705 28.4187L18.2272 28.4589L18.2842 28.4985L18.3415 28.5374L18.3991 28.5757L18.457 28.6133L18.5152 28.6504L18.5739 28.6869L18.6326 28.7225L18.6917 28.7577L18.7512 28.7923L18.8107 28.8261L18.8706 28.8593L18.931 28.8919L18.9914 28.9238L19.052 28.9551L19.1128 28.9857L19.1741 29.0157L19.2352 29.0449L19.2969 29.0737L19.3586 29.1017L19.4205 29.129L19.4827 29.1557L19.5451 29.1818L19.6075 29.2072L19.6702 29.2319L19.733 29.2559L19.7961 29.2794L19.859 29.3021L19.9225 29.3242L19.9858 29.3456L20.0492 29.3664L20.1129 29.3865L20.1767 29.406L20.2405 29.4247L20.3044 29.4428L20.3686 29.4602L20.4327 29.477L20.4968 29.4931L20.5611 29.5086L20.6253 29.5233L20.6896 29.5374L20.7541 29.551L20.8186 29.5637L20.883 29.5759L20.9475 29.5874L21.0121 29.5982L21.0766 29.6084L21.1412 29.6179L21.2055 29.6267L21.2701 29.6349L21.3346 29.6425L21.3991 29.6494L21.4636 29.6556L21.5281 29.6612L21.5924 29.6661L21.6567 29.6704L21.721 29.674L21.7851 29.677L21.8492 29.6794L21.9134 29.6811L21.9772 29.6822L22.041 29.6826L22.1048 29.6824L22.1684 29.6816L22.2321 29.6801L22.2955 29.678L22.3587 29.6754L22.4218 29.672L22.4851 29.668L22.5478 29.6634L22.6106 29.6582L22.6731 29.6524L22.7355 29.646L22.7978 29.6388L22.8597 29.6313L22.9218 29.623L22.9834 29.6141L23.0447 29.6046L23.1062 29.5946L23.1673 29.584L23.2281 29.5727L23.2888 29.5609L23.3493 29.5484L23.4094 29.5354L23.4692 29.5219L23.5291 29.5077L23.5886 29.493L23.6478 29.4778L23.7067 29.462L23.7654 29.4456L23.824 29.4285L23.8821 29.411L23.9397 29.393L23.9976 29.3743L24.0548 29.3552L24.1117 29.3356L24.1684 29.3153L24.2247 29.2945L24.2809 29.2732L24.3367 29.2514L24.392 29.2291L24.4471 29.2063L24.5019 29.1829L24.5565 29.159L24.6104 29.1347L24.6643 29.1098L24.7176 29.0846L24.7705 29.0587L24.8233 29.0324L24.8755 29.0057L24.9275 28.9784L24.9791 28.9506L25.0302 28.9224L25.081 28.8938L25.1314 28.8647L25.1815 28.8351L25.231 28.805L25.2802 28.7746L25.329 28.7437L25.3774 28.7124L25.4255 28.6806L25.473 28.6485L25.5202 28.6158L25.5669 28.5828L25.6131 28.5495L25.659 28.5156L25.7044 28.4814L25.7494 28.4468L25.794 28.4118L25.8382 28.3764L25.8818 28.3407L25.925 28.3047L25.9677 28.2681L26.0099 28.2313L26.0518 28.1941L26.0932 28.1565L26.1341 28.1186L26.1744 28.0805L26.2144 28.0419L26.2539 28.0029L26.2929 27.9638L26.3314 27.9243L26.3694 27.8843L26.4069 27.8443L26.4441 27.8037L26.4805 27.7631L26.5167 27.722L26.5522 27.6806L26.5872 27.6391L26.6219 27.5971L26.6558 27.5551L26.6895 27.5126L26.7226 27.4701L26.755 27.4272L26.7872 27.384L26.8186 27.3407L26.8496 27.2969L26.8802 27.253L26.9101 27.2092L26.9396 27.1647L26.9687 27.1203L26.9969 27.0756L27.0249 27.0307L27.0523 26.9856L27.0791 26.9403L27.1055 26.8949L27.1312 26.8492L27.1565 26.8035L27.1813 26.7574L27.2055 26.7114L27.2291 26.6651L27.2524 26.6187L27.275 26.5722L27.2971 26.5253L27.3187 26.4785L27.3397 26.4316L27.3602 26.3846L27.3802 26.3373L27.3995 26.2901L27.4186 26.2425L27.4368 26.1953L27.4548 26.1473L27.4719 26.1001L27.4887 26.0522L27.505 26.0042L27.5206 25.9565L27.5358 25.9085L27.5505 25.8607L27.5646 25.8123L27.5781 25.7645L27.5913 25.716L27.6037 25.6683L27.6157 25.6199L27.6271 25.5715L27.638 25.5234L27.6484 25.4755L27.6583 25.4268L27.6676 25.3788L27.6764 25.3303L27.6847 25.2823L27.6925 25.2341L27.6997 25.1858L27.7064 25.1375L27.7126 25.0894L27.7183 25.0414L27.7235 24.9935L27.7281 24.9453L27.7323 24.8974L27.7359 24.8494L27.739 24.8016L27.7416 24.7539L27.7437 24.7062L27.7453 24.6588L27.7464 24.6111L27.747 24.5634L27.7471 24.5163L27.7467 24.4691L27.7458 24.422L27.7444 24.375L27.7425 24.3278L27.7401 24.2815L27.7372 24.2342L27.7339 24.1881L27.7301 24.1418L27.7258 24.0952L27.721 24.0491L27.7158 24.0034L27.71 23.9571L27.7038 23.9118L27.6971 23.8662L27.69 23.8212L27.6823 23.7757L27.6743 23.7306L27.6658 23.686L27.6569 23.6414L27.6475 23.5968L27.6376 23.5527L27.6273 23.5085L27.6166 23.4648L27.6055 23.4213L27.5937 23.3775L27.5818 23.3346L27.5693 23.2913L27.5564 23.2487L27.5431 23.2062L27.5293 23.1639L27.5151 23.1218L27.5005 23.0798L27.4857 23.0384L27.4703 22.9972L27.4544 22.9558L27.4383 22.9151L27.4216 22.8742L27.4048 22.8342L27.3873 22.7939L27.3697 22.7542L27.3516 22.7148L27.3331 22.6754L27.3143 22.6365L27.295 22.5977L27.2755 22.5592L27.2555 22.5212L27.2352 22.4833L27.2146 22.4458L27.1936 22.4085L27.1722 22.3716L27.1506 22.335L27.1286 22.2987L27.1062 22.2625L27.0835 22.2269L27.0605 22.1915L27.0372 22.1564L27.0135 22.1216L26.9897 22.0872L26.9654 22.053L26.9408 22.0193L26.916 21.9858L26.8908 21.9527L26.8655 21.9199L26.8396 21.8874L26.8137 21.8554L26.7874 21.8236L26.7609 21.7921L26.734 21.761L26.7071 21.7303L26.6797 21.6999L26.6521 21.6699L26.6243 21.6401L26.5962 21.6108L26.5678 21.5819L26.5392 21.5532L26.5105 21.525L26.4815 21.4972L26.4523 21.4697L26.4226 21.4424L26.3931 21.4157L26.3632 21.3892L26.3332 21.3632L26.3028 21.3375L26.2724 21.3123L26.2417 21.2873L26.2109 21.2628L26.1799 21.2386L26.1486 21.2147L26.1173 21.1914L26.0857 21.1683L26.0539 21.1456L26.0221 21.1234L25.9901 21.1014L25.958 21.08L25.9256 21.0588L25.8931 21.0381L25.8606 21.0177L25.8277 20.9977L25.795 20.9781L25.7621 20.959L25.729 20.9402L25.6956 20.9217L25.6624 20.9036L25.6291 20.8859L25.5955 20.8687L25.5621 20.8518L25.5282 20.8352L25.4946 20.8192L25.4607 20.8035L25.4268 20.7881L25.3928 20.7732L25.3586 20.7585L25.3247 20.7445L25.2904 20.7307L25.2561 20.7173L25.2219 20.7043L25.1875 20.6917L25.1532 20.6794L25.1188 20.6676L25.0844 20.656L25.05 20.645L25.0155 20.6342L24.981 20.6239L24.9466 20.614L24.9119 20.6044L24.8776 20.5953L24.843 20.5865L24.8085 20.578L24.7739 20.57L24.7395 20.5623L24.705 20.555L24.6705 20.5481L24.6362 20.5415L24.6019 20.5354L24.5674 20.5295L24.5333 20.5241L24.4987 20.5191L24.4647 20.5143L24.4304 20.5099L24.3963 20.506L24.3624 20.5024L24.3283 20.4992L24.2945 20.4962L24.2606 20.4937L24.2268 20.4915L24.193 20.4896L24.1594 20.4882L24.126 20.4871L24.0925 20.4862L24.0592 20.4857L24.0258 20.4856L23.9927 20.486L23.9596 20.4865L23.9267 20.4874L23.8938 20.4887L23.8613 20.4903L23.8285 20.4922L23.7962 20.4944L23.7638 20.497L23.7316 20.4999L23.6996 20.5031L23.6675 20.5066L23.6358 20.5105L23.6041 20.5147L23.5726 20.5192L23.5412 20.524L23.51 20.5291L23.4789 20.5345L23.4482 20.5402L23.4173 20.5462L23.3868 20.5525L23.3564 20.5591L23.3262 20.566Z" fill="#3F64AB"/>
<path d="M67.6787 26.8608C67.6787 26.4419 67.6143 26.0659 67.4854 25.7329C67.3672 25.3892 67.1416 25.0776 66.8086 24.7983C66.4756 24.5083 66.0083 24.2236 65.4067 23.9443C64.8052 23.665 64.0264 23.375 63.0703 23.0742C62.0068 22.7305 60.9971 22.3438 60.041 21.9141C59.0957 21.4844 58.2578 20.9849 57.5273 20.4155C56.8076 19.8354 56.2383 19.1641 55.8193 18.4014C55.4111 17.6387 55.207 16.7524 55.207 15.7427C55.207 14.7651 55.4219 13.8789 55.8516 13.084C56.2812 12.2783 56.8828 11.5908 57.6562 11.0215C58.4297 10.4414 59.3428 9.99561 60.3955 9.68408C61.459 9.37256 62.6245 9.2168 63.8921 9.2168C65.6216 9.2168 67.1309 9.52832 68.4199 10.1514C69.709 10.7744 70.708 11.6284 71.417 12.7134C72.1367 13.7983 72.4966 15.0391 72.4966 16.4355H67.6948C67.6948 15.748 67.5498 15.1465 67.2598 14.6309C66.9805 14.1045 66.5508 13.6909 65.9707 13.3901C65.4014 13.0894 64.6816 12.939 63.8115 12.939C62.9736 12.939 62.2754 13.0679 61.7168 13.3257C61.1582 13.5728 60.7393 13.9111 60.46 14.3408C60.1807 14.7598 60.041 15.2324 60.041 15.7588C60.041 16.1562 60.1377 16.5161 60.3311 16.8384C60.5352 17.1606 60.8359 17.4614 61.2334 17.7407C61.6309 18.02 62.1196 18.2832 62.6997 18.5303C63.2798 18.7773 63.9512 19.019 64.7139 19.2554C65.9922 19.6421 67.1147 20.0771 68.0815 20.5605C69.0591 21.0439 69.8755 21.5864 70.5308 22.188C71.186 22.7896 71.6802 23.4717 72.0132 24.2344C72.3462 24.9971 72.5127 25.8618 72.5127 26.8286C72.5127 27.8491 72.314 28.7622 71.9165 29.5679C71.519 30.3735 70.9443 31.0557 70.1924 31.6143C69.4404 32.1729 68.5435 32.5972 67.5015 32.8872C66.4595 33.1772 65.2939 33.3223 64.0049 33.3223C62.8447 33.3223 61.7007 33.1719 60.5728 32.8711C59.4448 32.5596 58.4189 32.0923 57.4951 31.4692C56.582 30.8462 55.8516 30.0513 55.3037 29.0845C54.7559 28.1177 54.4819 26.9736 54.4819 25.6523H59.332C59.332 26.3828 59.4448 27.0005 59.6704 27.5054C59.896 28.0103 60.2129 28.4185 60.6211 28.73C61.04 29.0415 61.5342 29.2671 62.1035 29.4067C62.6836 29.5464 63.3174 29.6162 64.0049 29.6162C64.8428 29.6162 65.5303 29.498 66.0674 29.2617C66.6152 29.0254 67.0181 28.6978 67.2759 28.2788C67.5444 27.8599 67.6787 27.3872 67.6787 26.8608ZM91.4458 19.0942V22.8647H79.1997V19.0942H91.4458ZM80.6338 9.53906V33H75.7998V9.53906H80.6338ZM94.894 9.53906V33H90.0762V9.53906H94.894ZM114.842 29.2295V33H102.354V29.2295H114.842ZM103.934 9.53906V33H99.0996V9.53906H103.934ZM113.215 19.0942V22.7681H102.354V19.0942H113.215ZM114.826 9.53906V13.3257H102.354V9.53906H114.826ZM132.744 29.2295V33H120.933V29.2295H132.744ZM122.496 9.53906V33H117.662V9.53906H122.496ZM150.598 29.2295V33H138.787V29.2295H150.598ZM140.35 9.53906V33H135.516V9.53906H140.35ZM165.583 26.8608C165.583 26.4419 165.519 26.0659 165.39 25.7329C165.271 25.3892 165.046 25.0776 164.713 24.7983C164.38 24.5083 163.913 24.2236 163.311 23.9443C162.709 23.665 161.931 23.375 160.975 23.0742C159.911 22.7305 158.901 22.3438 157.945 21.9141C157 21.4844 156.162 20.9849 155.432 20.4155C154.712 19.8354 154.143 19.1641 153.724 18.4014C153.315 17.6387 153.111 16.7524 153.111 15.7427C153.111 14.7651 153.326 13.8789 153.756 13.084C154.186 12.2783 154.787 11.5908 155.561 11.0215C156.334 10.4414 157.247 9.99561 158.3 9.68408C159.363 9.37256 160.529 9.2168 161.796 9.2168C163.526 9.2168 165.035 9.52832 166.324 10.1514C167.613 10.7744 168.612 11.6284 169.321 12.7134C170.041 13.7983 170.401 15.0391 170.401 16.4355H165.599C165.599 15.748 165.454 15.1465 165.164 14.6309C164.885 14.1045 164.455 13.6909 163.875 13.3901C163.306 13.0894 162.586 12.939 161.716 12.939C160.878 12.939 160.18 13.0679 159.621 13.3257C159.062 13.5728 158.644 13.9111 158.364 14.3408C158.085 14.7598 157.945 15.2324 157.945 15.7588C157.945 16.1562 158.042 16.5161 158.235 16.8384C158.439 17.1606 158.74 17.4614 159.138 17.7407C159.535 18.02 160.024 18.2832 160.604 18.5303C161.184 18.7773 161.855 19.019 162.618 19.2554C163.896 19.6421 165.019 20.0771 165.986 20.5605C166.963 21.0439 167.78 21.5864 168.435 22.188C169.09 22.7896 169.584 23.4717 169.917 24.2344C170.25 24.9971 170.417 25.8618 170.417 26.8286C170.417 27.8491 170.218 28.7622 169.821 29.5679C169.423 30.3735 168.849 31.0557 168.097 31.6143C167.345 32.1729 166.448 32.5972 165.406 32.8872C164.364 33.1772 163.198 33.3223 161.909 33.3223C160.749 33.3223 159.605 33.1719 158.477 32.8711C157.349 32.5596 156.323 32.0923 155.399 31.4692C154.486 30.8462 153.756 30.0513 153.208 29.0845C152.66 28.1177 152.386 26.9736 152.386 25.6523H157.236C157.236 26.3828 157.349 27.0005 157.575 27.5054C157.8 28.0103 158.117 28.4185 158.525 28.73C158.944 29.0415 159.438 29.2671 160.008 29.4067C160.588 29.5464 161.222 29.6162 161.909 29.6162C162.747 29.6162 163.435 29.498 163.972 29.2617C164.52 29.0254 164.922 28.6978 165.18 28.2788C165.449 27.8599 165.583 27.3872 165.583 26.8608Z" fill="#3F64AB"/>
</svg>
