<svg width="243" height="44" viewBox="0 0 243 44" fill="none" xmlns="http://www.w3.org/2000/svg">
<path d="M32.1639 36.4161L2.72159 16.1068C-0.262033 14.0488 0.752202 9.7637 4.47271 8.75603L35.7646 0.263048C36.4275 0.0238653 37.1378 -0.0537778 37.8368 0.0365678C38.5356 0.126914 39.2029 0.382639 39.7832 0.782523C40.3633 1.18241 40.8399 1.71491 41.1731 2.33584C41.5062 2.95678 41.6866 3.64823 41.6991 4.35281L39.8446 33.1535C39.6246 36.572 35.1476 38.4741 32.1639 36.4161Z" fill="#3F64AB"/>
<path d="M22.8257 41.4292L5.48027 7.50822C5.08377 6.73222 4.90929 5.86176 4.97607 4.99289C5.04285 4.12401 5.3483 3.29045 5.85872 2.58414C6.36915 1.87784 7.06472 1.32621 7.86874 0.990104C8.67276 0.653995 9.55398 0.546466 10.4152 0.679384L42.5606 5.64058C43.3006 5.75483 44.003 6.04309 44.6101 6.48169C45.217 6.92031 45.7111 7.49672 46.052 8.16354C46.3927 8.83035 46.5704 9.56853 46.5703 10.3174C46.5701 11.0662 46.3922 11.8044 46.0513 12.4711L31.2432 41.4309C30.8455 42.2047 30.2422 42.8539 29.4996 43.307C28.757 43.7603 27.9039 43.9999 27.0339 43.9998C26.164 43.9996 25.3109 43.7597 24.5684 43.3062C23.826 42.8526 23.223 42.2032 22.8257 41.4292Z" fill="#3F64AB"/>
<path d="M71.8789 26.8608C71.8789 26.4419 71.8145 26.0659 71.6855 25.7329C71.5674 25.3892 71.3418 25.0776 71.0088 24.7983C70.6758 24.5083 70.2085 24.2236 69.6069 23.9443C69.0054 23.665 68.2266 23.375 67.2705 23.0742C66.207 22.7305 65.1973 22.3438 64.2412 21.9141C63.2959 21.4844 62.458 20.9849 61.7275 20.4155C61.0078 19.8354 60.4385 19.1641 60.0195 18.4014C59.6113 17.6387 59.4072 16.7524 59.4072 15.7427C59.4072 14.7651 59.6221 13.8789 60.0518 13.084C60.4814 12.2783 61.083 11.5908 61.8564 11.0215C62.6299 10.4414 63.543 9.99561 64.5957 9.68408C65.6592 9.37256 66.8247 9.2168 68.0923 9.2168C69.8218 9.2168 71.3311 9.52832 72.6201 10.1514C73.9092 10.7744 74.9082 11.6284 75.6172 12.7134C76.3369 13.7983 76.6968 15.0391 76.6968 16.4355H71.895C71.895 15.748 71.75 15.1465 71.46 14.6309C71.1807 14.1045 70.751 13.6909 70.1709 13.3901C69.6016 13.0894 68.8818 12.939 68.0117 12.939C67.1738 12.939 66.4756 13.0679 65.917 13.3257C65.3584 13.5728 64.9395 13.9111 64.6602 14.3408C64.3809 14.7598 64.2412 15.2324 64.2412 15.7588C64.2412 16.1562 64.3379 16.5161 64.5312 16.8384C64.7354 17.1606 65.0361 17.4614 65.4336 17.7407C65.8311 18.02 66.3198 18.2832 66.8999 18.5303C67.48 18.7773 68.1514 19.019 68.9141 19.2554C70.1924 19.6421 71.3149 20.0771 72.2817 20.5605C73.2593 21.0439 74.0757 21.5864 74.731 22.188C75.3862 22.7896 75.8804 23.4717 76.2134 24.2344C76.5464 24.9971 76.7129 25.8618 76.7129 26.8286C76.7129 27.8491 76.5142 28.7622 76.1167 29.5679C75.7192 30.3735 75.1445 31.0557 74.3926 31.6143C73.6406 32.1729 72.7437 32.5972 71.7017 32.8872C70.6597 33.1772 69.4941 33.3223 68.2051 33.3223C67.0449 33.3223 65.9009 33.1719 64.7729 32.8711C63.645 32.5596 62.6191 32.0923 61.6953 31.4692C60.7822 30.8462 60.0518 30.0513 59.5039 29.0845C58.9561 28.1177 58.6821 26.9736 58.6821 25.6523H63.5322C63.5322 26.3828 63.645 27.0005 63.8706 27.5054C64.0962 28.0103 64.4131 28.4185 64.8213 28.73C65.2402 29.0415 65.7344 29.2671 66.3037 29.4067C66.8838 29.5464 67.5176 29.6162 68.2051 29.6162C69.043 29.6162 69.7305 29.498 70.2676 29.2617C70.8154 29.0254 71.2183 28.6978 71.4761 28.2788C71.7446 27.8599 71.8789 27.3872 71.8789 26.8608ZM84.3506 19.1748V33H79.6938V15.5654H84.0605L84.3506 19.1748ZM83.7061 23.6704H82.417C82.417 22.4565 82.562 21.3394 82.8521 20.3188C83.1528 19.2876 83.5879 18.396 84.1572 17.644C84.7373 16.8813 85.4517 16.2905 86.3003 15.8716C87.1489 15.4526 88.1318 15.2432 89.249 15.2432C90.0225 15.2432 90.7314 15.3613 91.376 15.5977C92.0205 15.8232 92.5737 16.1831 93.0356 16.6772C93.5083 17.1606 93.8735 17.7944 94.1313 18.5786C94.3892 19.3521 94.5181 20.2812 94.5181 21.3662V33H89.8774V21.8818C89.8774 21.0869 89.77 20.4746 89.5552 20.0449C89.3403 19.6152 89.0342 19.3145 88.6367 19.1426C88.25 18.9707 87.7827 18.8848 87.2349 18.8848C86.6333 18.8848 86.1069 19.0083 85.6558 19.2554C85.2153 19.5024 84.8501 19.8462 84.5601 20.2866C84.27 20.7163 84.0552 21.2212 83.9155 21.8013C83.7759 22.3813 83.7061 23.0044 83.7061 23.6704ZM94.083 23.1387L92.4233 23.3481C92.4233 22.2095 92.563 21.1514 92.8423 20.1738C93.1323 19.1963 93.5566 18.3369 94.1152 17.5957C94.6846 16.8545 95.3882 16.2798 96.2261 15.8716C97.064 15.4526 98.0308 15.2432 99.1265 15.2432C99.9644 15.2432 100.727 15.3667 101.415 15.6138C102.102 15.8501 102.688 16.2314 103.171 16.7578C103.665 17.2734 104.041 17.9502 104.299 18.7881C104.567 19.626 104.702 20.6519 104.702 21.8657V33H100.045V21.8657C100.045 21.0601 99.9375 20.4478 99.7227 20.0288C99.5186 19.5991 99.2178 19.3037 98.8203 19.1426C98.4336 18.9707 97.9717 18.8848 97.4346 18.8848C96.876 18.8848 96.3872 18.9976 95.9683 19.2231C95.5493 19.438 95.2002 19.7388 94.9209 20.1255C94.6416 20.5122 94.4321 20.9634 94.2925 21.479C94.1528 21.9839 94.083 22.5371 94.083 23.1387ZM117.705 29.0684V21.3018C117.705 20.7432 117.614 20.2651 117.431 19.8677C117.249 19.4595 116.964 19.1426 116.577 18.917C116.201 18.6914 115.712 18.5786 115.111 18.5786C114.595 18.5786 114.149 18.6699 113.773 18.8525C113.397 19.0244 113.107 19.2769 112.903 19.6099C112.699 19.9321 112.597 20.3135 112.597 20.7539H107.957C107.957 20.0127 108.128 19.3091 108.472 18.6431C108.816 17.9771 109.315 17.3916 109.971 16.8867C110.626 16.3711 111.405 15.9683 112.307 15.6782C113.22 15.3882 114.241 15.2432 115.369 15.2432C116.722 15.2432 117.925 15.4688 118.978 15.9199C120.031 16.3711 120.858 17.0479 121.459 17.9502C122.072 18.8525 122.378 19.9805 122.378 21.334V28.7944C122.378 29.7505 122.437 30.5347 122.555 31.147C122.673 31.7485 122.845 32.2749 123.071 32.7261V33H118.382C118.156 32.5273 117.984 31.9365 117.866 31.2275C117.759 30.5078 117.705 29.7881 117.705 29.0684ZM118.317 22.3813L118.35 25.0078H115.755C115.143 25.0078 114.611 25.0776 114.16 25.2173C113.709 25.3569 113.338 25.5557 113.048 25.8135C112.758 26.0605 112.543 26.3506 112.404 26.6836C112.275 27.0166 112.21 27.3818 112.21 27.7793C112.21 28.1768 112.302 28.5366 112.484 28.8589C112.667 29.1704 112.93 29.4175 113.274 29.6001C113.618 29.772 114.021 29.8579 114.482 29.8579C115.181 29.8579 115.788 29.7183 116.303 29.439C116.819 29.1597 117.216 28.8159 117.496 28.4077C117.786 27.9995 117.936 27.6128 117.947 27.2476L119.171 29.2134C119 29.6538 118.763 30.1104 118.462 30.583C118.172 31.0557 117.802 31.5015 117.351 31.9204C116.899 32.3286 116.357 32.667 115.723 32.9355C115.089 33.1934 114.337 33.3223 113.467 33.3223C112.361 33.3223 111.356 33.1021 110.454 32.6616C109.562 32.2104 108.854 31.5928 108.327 30.8086C107.812 30.0137 107.554 29.1113 107.554 28.1016C107.554 27.1885 107.726 26.3774 108.069 25.6685C108.413 24.9595 108.918 24.3633 109.584 23.8799C110.261 23.3857 111.104 23.0151 112.114 22.7681C113.124 22.5103 114.294 22.3813 115.626 22.3813H118.317ZM130.596 19.3682V33H125.955V15.5654H130.322L130.596 19.3682ZM135.849 15.4526L135.768 19.7549C135.542 19.7227 135.269 19.6958 134.946 19.6743C134.635 19.6421 134.35 19.626 134.092 19.626C133.437 19.626 132.868 19.7119 132.384 19.8838C131.912 20.0449 131.514 20.2866 131.192 20.6089C130.88 20.9312 130.644 21.3232 130.483 21.7852C130.333 22.2471 130.247 22.7734 130.225 23.3643L129.291 23.0742C129.291 21.9463 129.403 20.9097 129.629 19.9644C129.854 19.0083 130.182 18.1758 130.612 17.4668C131.052 16.7578 131.589 16.21 132.223 15.8232C132.857 15.4365 133.582 15.2432 134.398 15.2432C134.656 15.2432 134.919 15.2646 135.188 15.3076C135.457 15.3398 135.677 15.3882 135.849 15.4526ZM147.386 15.5654V18.8525H137.234V15.5654H147.386ZM139.748 11.2632H144.389V27.7471C144.389 28.252 144.453 28.6387 144.582 28.9072C144.722 29.1758 144.926 29.3638 145.194 29.4712C145.463 29.5679 145.801 29.6162 146.209 29.6162C146.5 29.6162 146.757 29.6055 146.983 29.584C147.219 29.5518 147.418 29.5195 147.579 29.4873L147.595 32.9033C147.198 33.0322 146.768 33.1343 146.306 33.2095C145.844 33.2847 145.334 33.3223 144.775 33.3223C143.755 33.3223 142.863 33.1558 142.101 32.8228C141.349 32.479 140.769 31.9312 140.36 31.1792C139.952 30.4272 139.748 29.439 139.748 28.2144V11.2632ZM155.152 9.53906V33H150.318V9.53906H155.152ZM164.498 19.5615V23.332H153.831V19.5615H164.498ZM165.626 9.53906V13.3257H153.831V9.53906H165.626ZM173.038 15.5654V33H168.381V15.5654H173.038ZM168.091 11.0215C168.091 10.3447 168.328 9.78613 168.8 9.3457C169.273 8.90527 169.907 8.68506 170.702 8.68506C171.486 8.68506 172.114 8.90527 172.587 9.3457C173.07 9.78613 173.312 10.3447 173.312 11.0215C173.312 11.6982 173.07 12.2568 172.587 12.6973C172.114 13.1377 171.486 13.3579 170.702 13.3579C169.907 13.3579 169.273 13.1377 168.8 12.6973C168.328 12.2568 168.091 11.6982 168.091 11.0215ZM181.417 19.2876V33H176.776V15.5654H181.127L181.417 19.2876ZM180.74 23.6704H179.483C179.483 22.3813 179.65 21.2212 179.983 20.1899C180.316 19.1479 180.783 18.2617 181.385 17.5312C181.986 16.79 182.701 16.2261 183.528 15.8394C184.366 15.4419 185.3 15.2432 186.332 15.2432C187.148 15.2432 187.895 15.3613 188.571 15.5977C189.248 15.834 189.828 16.21 190.312 16.7256C190.806 17.2412 191.182 17.9233 191.439 18.772C191.708 19.6206 191.842 20.6572 191.842 21.8818V33H187.169V21.8657C187.169 21.0923 187.062 20.4907 186.847 20.061C186.632 19.6313 186.315 19.3306 185.896 19.1587C185.488 18.9761 184.983 18.8848 184.382 18.8848C183.759 18.8848 183.216 19.0083 182.754 19.2554C182.303 19.5024 181.927 19.8462 181.626 20.2866C181.336 20.7163 181.116 21.2212 180.966 21.8013C180.815 22.3813 180.74 23.0044 180.74 23.6704ZM205.667 29.1973V8.25H210.34V33H206.135L205.667 29.1973ZM194.646 24.4922V24.1538C194.646 22.8218 194.796 21.6133 195.097 20.5283C195.398 19.4326 195.838 18.4927 196.418 17.7085C196.999 16.9243 197.713 16.3174 198.562 15.8877C199.41 15.458 200.377 15.2432 201.462 15.2432C202.482 15.2432 203.374 15.458 204.137 15.8877C204.91 16.3174 205.565 16.9297 206.103 17.7246C206.65 18.5088 207.091 19.438 207.424 20.5122C207.757 21.5757 207.999 22.7412 208.149 24.0088V24.75C207.999 25.9639 207.757 27.0918 207.424 28.1338C207.091 29.1758 206.65 30.0889 206.103 30.873C205.565 31.6465 204.91 32.248 204.137 32.6777C203.363 33.1074 202.461 33.3223 201.43 33.3223C200.345 33.3223 199.378 33.1021 198.529 32.6616C197.691 32.2212 196.982 31.6035 196.402 30.8086C195.833 30.0137 195.398 29.0791 195.097 28.0049C194.796 26.9307 194.646 25.7598 194.646 24.4922ZM199.287 24.1538V24.4922C199.287 25.2119 199.34 25.8833 199.448 26.5063C199.566 27.1294 199.754 27.6826 200.012 28.166C200.28 28.6387 200.624 29.0093 201.043 29.2778C201.473 29.5356 201.994 29.6646 202.606 29.6646C203.401 29.6646 204.056 29.4873 204.572 29.1328C205.087 28.7676 205.479 28.2681 205.748 27.6343C206.027 27.0005 206.188 26.27 206.231 25.4429V23.332C206.199 22.6553 206.103 22.0483 205.941 21.5112C205.791 20.9634 205.565 20.4961 205.265 20.1094C204.975 19.7227 204.609 19.4219 204.169 19.207C203.739 18.9922 203.229 18.8848 202.638 18.8848C202.037 18.8848 201.521 19.0244 201.091 19.3037C200.662 19.5723 200.312 19.9429 200.044 20.4155C199.786 20.8882 199.593 21.4468 199.464 22.0913C199.346 22.7251 199.287 23.4126 199.287 24.1538ZM221.99 33.3223C220.637 33.3223 219.423 33.1074 218.349 32.6777C217.274 32.2373 216.361 31.6304 215.609 30.8569C214.868 30.0835 214.299 29.1865 213.901 28.166C213.504 27.1348 213.305 26.0391 213.305 24.8789V24.2344C213.305 22.9131 213.493 21.7046 213.869 20.6089C214.245 19.5132 214.782 18.5625 215.48 17.7568C216.189 16.9512 217.049 16.3335 218.059 15.9038C219.068 15.4634 220.207 15.2432 221.475 15.2432C222.71 15.2432 223.806 15.4473 224.762 15.8555C225.718 16.2637 226.518 16.8438 227.163 17.5957C227.818 18.3477 228.312 19.25 228.645 20.3027C228.978 21.3447 229.145 22.5049 229.145 23.7832V25.7168H215.287V22.623H224.584V22.2686C224.584 21.624 224.466 21.0493 224.23 20.5444C224.004 20.0288 223.661 19.6206 223.199 19.3198C222.737 19.019 222.146 18.8687 221.426 18.8687C220.814 18.8687 220.288 19.0029 219.847 19.2715C219.407 19.54 219.047 19.916 218.768 20.3994C218.499 20.8828 218.295 21.4521 218.155 22.1074C218.026 22.752 217.962 23.4609 217.962 24.2344V24.8789C217.962 25.5771 218.059 26.2217 218.252 26.8125C218.456 27.4033 218.741 27.9136 219.106 28.3433C219.482 28.7729 219.933 29.106 220.459 29.3423C220.997 29.5786 221.604 29.6968 222.28 29.6968C223.118 29.6968 223.897 29.5356 224.617 29.2134C225.347 28.8804 225.976 28.3809 226.502 27.7148L228.758 30.1641C228.393 30.6904 227.893 31.1953 227.259 31.6787C226.636 32.1621 225.884 32.5596 225.003 32.8711C224.123 33.1719 223.118 33.3223 221.99 33.3223ZM236.428 19.3682V33H231.787V15.5654H236.154L236.428 19.3682ZM241.681 15.4526L241.6 19.7549C241.375 19.7227 241.101 19.6958 240.778 19.6743C240.467 19.6421 240.182 19.626 239.924 19.626C239.269 19.626 238.7 19.7119 238.216 19.8838C237.744 20.0449 237.346 20.2866 237.024 20.6089C236.712 20.9312 236.476 21.3232 236.315 21.7852C236.165 22.2471 236.079 22.7734 236.057 23.3643L235.123 23.0742C235.123 21.9463 235.235 20.9097 235.461 19.9644C235.687 19.0083 236.014 18.1758 236.444 17.4668C236.884 16.7578 237.421 16.21 238.055 15.8232C238.689 15.4365 239.414 15.2432 240.23 15.2432C240.488 15.2432 240.751 15.2646 241.02 15.3076C241.289 15.3398 241.509 15.3882 241.681 15.4526Z" fill="#3F64AB"/>
</svg>
