<svg width="43" height="44" viewBox="0 0 43 44" fill="none" xmlns="http://www.w3.org/2000/svg">
<path d="M15.2772 34.4471H14.3882C7.27654 34.4471 3.7207 32.6691 3.7207 23.7796V14.89C3.7207 7.77831 7.27654 4.22247 14.3882 4.22247H28.6115C35.7232 4.22247 39.279 7.77831 39.279 14.89V23.7796C39.279 30.8912 35.7232 34.4471 28.6115 34.4471H27.7226C27.1714 34.4471 26.638 34.7137 26.3002 35.1582L23.6334 38.7141C22.4599 40.2786 20.5398 40.2786 19.3664 38.7141L16.6995 35.1582C16.415 34.7671 15.7572 34.4471 15.2772 34.4471Z" stroke="#3F64AB" stroke-width="2.66687" stroke-miterlimit="10" stroke-linecap="round" stroke-linejoin="round"/>
<path opacity="0.4" d="M12.6104 14.89H30.3895" stroke="#3F64AB" stroke-width="2.66687" stroke-linecap="round" stroke-linejoin="round"/>
<path opacity="0.4" d="M12.6104 23.7795H23.2779" stroke="#3F64AB" stroke-width="2.66687" stroke-linecap="round" stroke-linejoin="round"/>
</svg>
